<svg xmlns="http://www.w3.org/2000/svg" width="162.992" height="166.97"><defs><clipPath id="a"><circle data-name="Ellipse 1984" cx="81.496" cy="81.496" r="81.496" fill="#f8f8f8"/></clipPath></defs><g data-name="Group 3539"><path data-name="Path 5912" d="M81.5 3.977A81.5 81.5 0 1 1 0 85.477a81.5 81.5 0 0 1 81.5-81.5Z" fill="#f7f7f7"/><g data-name="Mask Group 154" transform="translate(0 3.977)" clip-path="url(#a)"><path data-name="Path 5913" d="m-11.117 116.609 213.59-19.69-9.574 76.456-191.744 9.319Z" fill="#9a9a9a"/></g><g data-name="Ellipse 1988" fill="#f2f2f2"><path d="M86.083 116.683a132.629 132.629 0 0 1 15.732.908 88.948 88.948 0 0 1 13.14 2.505 36.45 36.45 0 0 1 9.307 3.794c2.32 1.453 3.745 3.067 4.028 4.779.286 1.731-.622 3.4-2.526 4.931a27.218 27.218 0 0 1-8.591 4.145 79.213 79.213 0 0 1-13.455 2.858 129.782 129.782 0 0 1-16.886 1.06 131.264 131.264 0 0 1-16.95-1.061 82.163 82.163 0 0 1-13.628-2.857 29.187 29.187 0 0 1-8.839-4.144c-2-1.532-3-3.2-2.822-4.931.18-1.712 1.509-3.326 3.741-4.779a34.2 34.2 0 0 1 9.079-3.794 86.022 86.022 0 0 1 12.991-2.506 131.248 131.248 0 0 1 15.679-.908Z"/><path d="M86.82 141.27c1.44 0 2.87-.021 4.284-.065 1.414-.043 2.813-.108 4.195-.195a122.84 122.84 0 0 0 4.086-.324c1.342-.13 2.662-.28 3.96-.451 1.249-.165 2.462-.348 3.64-.548 1.174-.2 2.312-.416 3.41-.649a70.517 70.517 0 0 0 3.17-.747 57.253 57.253 0 0 0 2.915-.84c.924-.295 1.793-.6 2.605-.917a31.74 31.74 0 0 0 2.264-.978 22.115 22.115 0 0 0 1.918-1.036c.58-.354 1.102-.718 1.565-1.09.477-.382.886-.77 1.226-1.161.34-.39.612-.786.817-1.184.204-.397.34-.798.409-1.201.069-.403.07-.808.004-1.215a4.228 4.228 0 0 0-.395-1.204 5.9 5.9 0 0 0-.783-1.174 9.161 9.161 0 0 0-1.164-1.14c-.45-.372-.963-.74-1.538-1.1a21.649 21.649 0 0 0-1.822-1.019 30.342 30.342 0 0 0-2.12-.955 41.243 41.243 0 0 0-2.41-.892 54.406 54.406 0 0 0-2.688-.825 67.767 67.767 0 0 0-2.935-.749 80.324 80.324 0 0 0-3.126-.659 93.632 93.632 0 0 0-3.306-.568c-1.13-.173-2.29-.332-3.478-.475-1.23-.148-2.478-.278-3.74-.39-1.26-.11-2.536-.204-3.824-.278a139.683 139.683 0 0 0-15.719 0 124.6 124.6 0 0 0-3.808.279c-1.255.11-2.494.24-3.716.389-1.18.143-2.33.302-3.45.475a90.85 90.85 0 0 0-3.272.568 77.44 77.44 0 0 0-3.086.66 64.89 64.89 0 0 0-2.89.748c-.927.264-1.807.54-2.64.825a38.88 38.88 0 0 0-2.355.892 28.35 28.35 0 0 0-2.063.955c-.639.33-1.226.67-1.761 1.019-.554.36-1.044.728-1.472 1.1a8.375 8.375 0 0 0-1.096 1.14c-.302.386-.54.778-.713 1.174-.173.397-.28.799-.322 1.204-.041.407-.016.812.077 1.215s.253.804.481 1.2c.228.4.524.794.887 1.185.365.391.797.779 1.296 1.161.486.372 1.03.736 1.631 1.09.603.354 1.263.7 1.98 1.036a33.87 33.87 0 0 0 2.322.978c.832.317 1.719.622 2.66.916.947.296 1.936.577 2.966.841 1.031.265 2.104.514 3.214.747 1.113.233 2.263.45 3.45.65 1.19.199 2.414.382 3.673.547 1.308.171 2.637.321 3.986.45 1.35.13 2.72.238 4.107.325 1.386.087 2.79.152 4.206.195 1.417.044 2.847.066 4.288.066m.012.392c-6.021 0-11.755-.378-16.95-1.06-5.173-.68-9.794-1.657-13.628-2.857-3.804-1.191-6.823-2.598-8.839-4.145-1.995-1.533-3.004-3.2-2.821-4.932.18-1.712 1.508-3.325 3.741-4.778 2.211-1.44 5.314-2.724 9.08-3.795 3.737-1.062 8.139-1.917 12.99-2.505 4.83-.585 10.123-.908 15.678-.908 5.554 0 10.866.323 15.732.908 4.886.588 9.339 1.443 13.14 2.505 3.83 1.07 7.01 2.355 9.307 3.795 2.32 1.453 3.745 3.066 4.028 4.778.286 1.732-.622 3.4-2.526 4.932-1.922 1.547-4.857 2.954-8.59 4.145-3.762 1.2-8.324 2.177-13.456 2.857-5.155.682-10.866 1.06-16.886 1.06Z" fill="#5a5a5a"/></g><g data-name="Ellipse 1989" fill="#ececec"><path d="M89.938 106.075a132.629 132.629 0 0 1 15.733.908 88.947 88.947 0 0 1 13.14 2.505 36.45 36.45 0 0 1 9.307 3.794c2.32 1.453 3.745 3.067 4.028 4.779.286 1.731-.622 3.4-2.526 4.931a27.218 27.218 0 0 1-8.591 4.145 79.213 79.213 0 0 1-13.456 2.858 129.782 129.782 0 0 1-16.886 1.06 131.264 131.264 0 0 1-16.95-1.061 82.162 82.162 0 0 1-13.628-2.857 29.186 29.186 0 0 1-8.839-4.144c-2-1.532-3-3.2-2.822-4.931.18-1.712 1.509-3.326 3.741-4.779a34.2 34.2 0 0 1 9.079-3.794 86.022 86.022 0 0 1 12.991-2.506 131.248 131.248 0 0 1 15.679-.908Z"/><path d="M90.675 130.663c1.44 0 2.87-.022 4.284-.066 1.414-.043 2.813-.108 4.195-.195 1.38-.087 2.744-.195 4.086-.324 1.342-.13 2.662-.28 3.96-.451 1.249-.165 2.462-.348 3.64-.548 1.174-.2 2.312-.416 3.41-.649a70.52 70.52 0 0 0 3.17-.747 57.254 57.254 0 0 0 2.915-.84c.924-.295 1.793-.6 2.605-.917a31.739 31.739 0 0 0 2.264-.978 22.114 22.114 0 0 0 1.918-1.036c.58-.354 1.102-.718 1.565-1.09.477-.382.886-.77 1.226-1.161.34-.39.613-.786.817-1.184.204-.397.34-.798.409-1.201.069-.403.07-.808.004-1.215a4.228 4.228 0 0 0-.395-1.204 5.9 5.9 0 0 0-.783-1.174 9.161 9.161 0 0 0-1.164-1.14c-.45-.372-.963-.74-1.538-1.1a21.648 21.648 0 0 0-1.822-1.019 30.342 30.342 0 0 0-2.12-.955 41.242 41.242 0 0 0-2.41-.892 54.407 54.407 0 0 0-2.688-.825 67.77 67.77 0 0 0-2.935-.749 80.32 80.32 0 0 0-3.125-.659 93.634 93.634 0 0 0-3.307-.568c-1.13-.173-2.29-.332-3.478-.475-1.23-.148-2.478-.278-3.74-.39-1.26-.11-2.536-.204-3.824-.278a139.683 139.683 0 0 0-15.719 0c-1.284.074-2.554.167-3.808.279-1.255.11-2.494.24-3.716.389-1.18.143-2.33.302-3.45.475a90.851 90.851 0 0 0-3.272.568c-1.061.205-2.09.425-3.086.66a64.89 64.89 0 0 0-2.89.748c-.927.264-1.807.54-2.64.825a38.88 38.88 0 0 0-2.355.892 28.35 28.35 0 0 0-2.063.955c-.639.33-1.226.67-1.761 1.019-.554.36-1.044.728-1.472 1.1a8.375 8.375 0 0 0-1.096 1.14c-.302.386-.54.778-.713 1.174-.173.397-.28.799-.322 1.204-.041.407-.016.812.077 1.215s.253.804.481 1.201c.228.398.524.793.887 1.184.365.391.797.779 1.296 1.161.486.372 1.03.736 1.631 1.09.603.355 1.263.7 1.98 1.036.718.336 1.492.663 2.322.978.832.317 1.719.622 2.66.916.947.296 1.936.577 2.966.841 1.031.265 2.104.514 3.214.747a87.78 87.78 0 0 0 3.45.65c1.19.199 2.414.382 3.673.547 1.308.171 2.637.322 3.986.45 1.35.13 2.72.238 4.107.325 1.386.087 2.79.152 4.206.195a139.6 139.6 0 0 0 4.288.066m.012.392c-6.021 0-11.755-.378-16.95-1.06-5.173-.68-9.794-1.657-13.628-2.857-3.804-1.191-6.823-2.598-8.839-4.145-1.995-1.533-3.004-3.2-2.821-4.932.18-1.712 1.509-3.325 3.741-4.778 2.211-1.44 5.314-2.724 9.08-3.795 3.737-1.062 8.139-1.917 12.99-2.505 4.83-.585 10.124-.908 15.678-.908s10.866.323 15.733.908c4.885.588 9.338 1.443 13.14 2.505 3.829 1.07 7.009 2.355 9.306 3.795 2.32 1.453 3.745 3.066 4.028 4.778.286 1.732-.622 3.4-2.526 4.932-1.922 1.547-4.857 2.954-8.59 4.145-3.762 1.2-8.324 2.177-13.456 2.857-5.155.682-10.866 1.06-16.886 1.06Z" fill="#5a5a5a"/></g><g data-name="Ellipse 1990" fill="#f2f2f2"><path d="M86.083 95.467a132.629 132.629 0 0 1 15.733.908 88.947 88.947 0 0 1 13.14 2.505 36.45 36.45 0 0 1 9.307 3.794c2.32 1.453 3.745 3.067 4.028 4.779.286 1.731-.622 3.4-2.526 4.931a27.218 27.218 0 0 1-8.591 4.145 79.213 79.213 0 0 1-13.456 2.858 129.782 129.782 0 0 1-16.886 1.06 131.264 131.264 0 0 1-16.95-1.061 82.162 82.162 0 0 1-13.628-2.857 29.186 29.186 0 0 1-8.839-4.144c-2-1.532-3-3.2-2.822-4.931.18-1.712 1.509-3.326 3.741-4.779a34.2 34.2 0 0 1 9.079-3.794 86.022 86.022 0 0 1 12.991-2.506 131.247 131.247 0 0 1 15.679-.908Z"/><path d="M86.82 120.055c1.44 0 2.87-.022 4.284-.066 1.414-.043 2.813-.108 4.195-.195a122.83 122.83 0 0 0 4.086-.324c1.342-.13 2.662-.28 3.96-.451 1.249-.165 2.462-.348 3.64-.548 1.174-.2 2.312-.416 3.41-.649a70.522 70.522 0 0 0 3.17-.747 57.253 57.253 0 0 0 2.915-.84c.924-.295 1.793-.6 2.605-.917a31.74 31.74 0 0 0 2.264-.978 22.116 22.116 0 0 0 1.918-1.036c.58-.354 1.102-.718 1.565-1.09.477-.382.886-.77 1.226-1.161.34-.39.612-.786.817-1.184.204-.397.34-.798.409-1.201.069-.403.07-.808.004-1.215a4.228 4.228 0 0 0-.395-1.204 5.9 5.9 0 0 0-.783-1.174 9.161 9.161 0 0 0-1.164-1.14c-.45-.372-.963-.74-1.538-1.1a21.648 21.648 0 0 0-1.822-1.019 30.342 30.342 0 0 0-2.12-.955 41.242 41.242 0 0 0-2.41-.892 54.407 54.407 0 0 0-2.688-.825 67.77 67.77 0 0 0-2.935-.749 80.32 80.32 0 0 0-3.125-.659 93.634 93.634 0 0 0-3.307-.568c-1.13-.173-2.29-.332-3.478-.475-1.23-.148-2.478-.278-3.74-.39-1.26-.11-2.536-.204-3.824-.278a139.683 139.683 0 0 0-15.719 0c-1.284.074-2.554.167-3.808.279-1.255.11-2.494.24-3.716.389-1.18.143-2.33.302-3.45.475a90.85 90.85 0 0 0-3.272.568 77.44 77.44 0 0 0-3.086.66c-.998.234-1.962.484-2.89.748-.927.264-1.807.54-2.64.825a38.88 38.88 0 0 0-2.355.892 28.35 28.35 0 0 0-2.063.955c-.639.33-1.226.67-1.761 1.019-.554.36-1.044.728-1.472 1.1a8.375 8.375 0 0 0-1.096 1.14c-.302.386-.54.778-.713 1.174-.173.397-.28.799-.322 1.204-.041.407-.016.812.077 1.215s.253.804.481 1.201c.228.398.524.793.887 1.184.365.392.797.779 1.296 1.161.486.372 1.03.736 1.631 1.09.603.355 1.263.7 1.98 1.036a33.87 33.87 0 0 0 2.322.978c.832.317 1.719.622 2.66.916.947.296 1.936.577 2.966.841 1.031.265 2.104.515 3.214.747 1.113.233 2.263.45 3.45.65 1.19.199 2.414.382 3.673.547 1.308.171 2.637.322 3.986.45 1.35.13 2.72.238 4.107.325 1.386.087 2.79.152 4.206.195 1.417.044 2.847.066 4.288.066m.012.392c-6.021 0-11.755-.378-16.95-1.06-5.173-.68-9.794-1.657-13.628-2.857-3.804-1.191-6.823-2.598-8.839-4.145-1.995-1.533-3.004-3.2-2.821-4.932.18-1.712 1.509-3.325 3.741-4.778 2.211-1.44 5.314-2.724 9.08-3.795 3.737-1.062 8.139-1.917 12.99-2.505 4.83-.585 10.124-.908 15.678-.908s10.866.323 15.733.908c4.885.588 9.338 1.443 13.14 2.505 3.829 1.07 7.009 2.355 9.306 3.795 2.32 1.453 3.745 3.066 4.028 4.778.286 1.732-.622 3.4-2.526 4.932-1.922 1.547-4.857 2.954-8.59 4.145-3.762 1.2-8.324 2.177-13.456 2.857-5.155.682-10.866 1.06-16.886 1.06Z" fill="#5a5a5a"/></g><g data-name="Ellipse 1991" fill="#f2f2f2"><path d="M86.083 84.859a132.63 132.63 0 0 1 15.732.908 88.948 88.948 0 0 1 13.14 2.505 36.45 36.45 0 0 1 9.307 3.794c2.32 1.453 3.745 3.067 4.028 4.779.286 1.731-.622 3.4-2.526 4.931a27.218 27.218 0 0 1-8.591 4.145 79.213 79.213 0 0 1-13.456 2.857 129.782 129.782 0 0 1-16.885 1.061 131.264 131.264 0 0 1-16.95-1.061 82.163 82.163 0 0 1-13.628-2.857 29.187 29.187 0 0 1-8.839-4.145c-2-1.532-3-3.2-2.822-4.931.18-1.712 1.509-3.326 3.741-4.779a34.2 34.2 0 0 1 9.079-3.794 86.022 86.022 0 0 1 12.991-2.505 131.248 131.248 0 0 1 15.679-.908Z"/><path d="M86.82 109.447c1.44 0 2.87-.022 4.284-.066 1.414-.043 2.813-.108 4.195-.195 1.38-.087 2.744-.195 4.086-.324 1.342-.13 2.662-.28 3.96-.451 1.249-.166 2.462-.348 3.64-.548 1.174-.2 2.312-.416 3.41-.649a70.522 70.522 0 0 0 3.17-.747 57.255 57.255 0 0 0 2.915-.84c.924-.295 1.793-.6 2.605-.917a31.74 31.74 0 0 0 2.264-.978 22.115 22.115 0 0 0 1.918-1.036c.58-.355 1.102-.718 1.565-1.09.477-.382.886-.77 1.226-1.161.34-.391.612-.786.817-1.184.204-.397.34-.798.409-1.201.069-.403.07-.808.004-1.215a4.228 4.228 0 0 0-.395-1.204 5.9 5.9 0 0 0-.783-1.174 9.161 9.161 0 0 0-1.164-1.14c-.45-.372-.963-.74-1.538-1.1a21.649 21.649 0 0 0-1.822-1.019 30.342 30.342 0 0 0-2.12-.955 41.242 41.242 0 0 0-2.41-.892 54.406 54.406 0 0 0-2.688-.825 67.768 67.768 0 0 0-2.935-.749 80.324 80.324 0 0 0-3.126-.659 93.633 93.633 0 0 0-3.306-.568c-1.13-.173-2.29-.332-3.478-.475-1.23-.148-2.478-.278-3.74-.39-1.26-.11-2.536-.204-3.824-.278a139.684 139.684 0 0 0-15.719 0 124.6 124.6 0 0 0-3.808.279c-1.255.11-2.494.24-3.716.389-1.18.143-2.33.302-3.45.475a90.851 90.851 0 0 0-3.272.568c-1.061.205-2.09.425-3.086.66a64.89 64.89 0 0 0-2.89.748c-.927.264-1.807.54-2.64.825a38.88 38.88 0 0 0-2.355.892 28.35 28.35 0 0 0-2.063.955c-.639.33-1.226.67-1.761 1.019-.554.36-1.044.728-1.472 1.1a8.375 8.375 0 0 0-1.096 1.14c-.302.386-.54.778-.713 1.174-.173.397-.28.798-.322 1.204-.041.407-.016.812.077 1.215s.253.804.481 1.2c.228.4.524.794.887 1.185.365.391.797.779 1.296 1.161.486.372 1.03.735 1.631 1.09.603.354 1.263.7 1.98 1.036a33.87 33.87 0 0 0 2.322.978c.832.316 1.719.622 2.66.916.947.296 1.936.577 2.966.841 1.031.265 2.104.514 3.214.747a87.78 87.78 0 0 0 3.45.65c1.19.199 2.414.381 3.673.547 1.308.17 2.637.321 3.986.45 1.35.13 2.72.238 4.107.325 1.386.087 2.79.152 4.206.195 1.417.044 2.847.066 4.288.066m.012.392c-6.021 0-11.755-.378-16.95-1.06-5.173-.68-9.794-1.657-13.628-2.857-3.804-1.191-6.823-2.598-8.839-4.146-1.995-1.532-3.004-3.2-2.821-4.93.18-1.713 1.508-3.326 3.741-4.78 2.211-1.439 5.314-2.723 9.08-3.794 3.737-1.062 8.139-1.917 12.99-2.505 4.83-.585 10.123-.908 15.678-.908 5.554 0 10.866.323 15.732.908 4.886.588 9.339 1.443 13.14 2.505 3.83 1.07 7.01 2.355 9.307 3.795 2.32 1.453 3.745 3.066 4.028 4.778.286 1.732-.622 3.4-2.526 4.931-1.922 1.548-4.857 2.955-8.59 4.146-3.762 1.2-8.324 2.177-13.456 2.856-5.155.683-10.866 1.061-16.886 1.061Z" fill="#5a5a5a"/></g><g data-name="Ellipse 1992" fill="#ececec"><path d="M80.944 74.253a132.629 132.629 0 0 1 15.732.908 88.948 88.948 0 0 1 13.14 2.505 36.45 36.45 0 0 1 9.307 3.794c2.32 1.453 3.745 3.067 4.028 4.779.286 1.731-.622 3.4-2.526 4.931a27.218 27.218 0 0 1-8.59 4.145 79.213 79.213 0 0 1-13.456 2.858 129.782 129.782 0 0 1-16.886 1.06 131.264 131.264 0 0 1-16.95-1.061 82.162 82.162 0 0 1-13.628-2.857 29.187 29.187 0 0 1-8.839-4.144c-2-1.532-3-3.2-2.822-4.931.18-1.712 1.509-3.326 3.741-4.779a34.2 34.2 0 0 1 9.079-3.794 86.022 86.022 0 0 1 12.991-2.506 131.248 131.248 0 0 1 15.679-.908Z"/><path d="M81.68 98.84c1.441 0 2.87-.021 4.285-.065 1.414-.043 2.813-.108 4.195-.195a122.84 122.84 0 0 0 4.086-.324c1.342-.13 2.662-.28 3.96-.451 1.249-.165 2.462-.348 3.64-.548 1.174-.2 2.312-.416 3.41-.649a70.522 70.522 0 0 0 3.17-.747 57.253 57.253 0 0 0 2.915-.84c.924-.295 1.793-.6 2.605-.917a31.74 31.74 0 0 0 2.264-.978 22.116 22.116 0 0 0 1.918-1.036c.58-.354 1.102-.718 1.565-1.09.477-.382.886-.77 1.226-1.161.34-.39.612-.786.817-1.184.204-.397.34-.798.409-1.201.069-.403.07-.808.004-1.215a4.228 4.228 0 0 0-.395-1.204 5.9 5.9 0 0 0-.783-1.174 9.16 9.16 0 0 0-1.164-1.14c-.45-.372-.963-.74-1.538-1.1a21.649 21.649 0 0 0-1.822-1.019 30.344 30.344 0 0 0-2.12-.955 41.245 41.245 0 0 0-2.41-.892 54.405 54.405 0 0 0-2.688-.825 67.765 67.765 0 0 0-2.935-.749 80.32 80.32 0 0 0-3.126-.659 93.634 93.634 0 0 0-3.306-.568c-1.13-.173-2.29-.332-3.478-.475-1.231-.148-2.478-.278-3.74-.39-1.26-.11-2.536-.204-3.824-.278a139.683 139.683 0 0 0-15.719 0 124.6 124.6 0 0 0-3.808.279c-1.255.11-2.494.24-3.716.389-1.18.143-2.33.302-3.45.475a90.851 90.851 0 0 0-3.272.568c-1.061.205-2.09.425-3.086.66a64.89 64.89 0 0 0-2.89.748c-.927.264-1.807.54-2.64.825a38.88 38.88 0 0 0-2.355.892 28.35 28.35 0 0 0-2.063.955c-.639.33-1.226.67-1.761 1.019-.554.36-1.044.728-1.472 1.1a8.375 8.375 0 0 0-1.096 1.14c-.302.386-.54.778-.713 1.174-.173.397-.28.799-.322 1.204-.042.407-.016.812.077 1.215s.253.804.481 1.2c.228.4.524.794.887 1.185.365.391.797.779 1.296 1.161.486.372 1.03.736 1.631 1.09.603.354 1.263.7 1.98 1.036.718.336 1.492.663 2.322.978.832.317 1.719.622 2.66.916.947.296 1.936.577 2.966.841a73.39 73.39 0 0 0 3.214.747 87.78 87.78 0 0 0 3.45.65c1.19.199 2.414.382 3.673.547 1.308.171 2.637.322 3.987.45 1.35.13 2.72.238 4.106.325 1.386.087 2.79.152 4.206.195 1.417.044 2.847.066 4.288.066m.012.392c-6.021 0-11.755-.378-16.95-1.06-5.173-.68-9.794-1.657-13.628-2.857-3.804-1.191-6.823-2.598-8.839-4.145-1.995-1.533-3.004-3.2-2.821-4.932.18-1.712 1.508-3.325 3.74-4.778 2.212-1.44 5.315-2.724 9.08-3.795 3.738-1.062 8.14-1.917 12.99-2.505 4.831-.585 10.124-.908 15.679-.908 5.554 0 10.866.323 15.732.908 4.886.588 9.339 1.443 13.14 2.505 3.83 1.07 7.01 2.355 9.307 3.795 2.32 1.453 3.745 3.066 4.028 4.778.286 1.732-.622 3.4-2.526 4.932-1.922 1.547-4.857 2.954-8.59 4.145-3.762 1.2-8.324 2.177-13.456 2.857-5.155.682-10.866 1.06-16.886 1.06Z" fill="#5a5a5a"/></g><g data-name="Ellipse 1993" fill="#f2f2f2"><path d="M92.628 63.645a132.629 132.629 0 0 1 15.733.908 88.948 88.948 0 0 1 13.14 2.505 36.45 36.45 0 0 1 9.307 3.794c2.32 1.453 3.745 3.067 4.028 4.779.286 1.731-.622 3.4-2.526 4.931a27.218 27.218 0 0 1-8.59 4.145 79.213 79.213 0 0 1-13.456 2.858 129.782 129.782 0 0 1-16.886 1.06 131.264 131.264 0 0 1-16.95-1.061A82.162 82.162 0 0 1 62.8 84.707a29.187 29.187 0 0 1-8.839-4.144c-2-1.532-3-3.2-2.822-4.931.18-1.712 1.509-3.326 3.741-4.779a34.2 34.2 0 0 1 9.079-3.794 86.021 86.021 0 0 1 12.991-2.506 131.247 131.247 0 0 1 15.678-.908Z"/><path d="M93.366 88.233c1.44 0 2.87-.022 4.284-.066 1.414-.043 2.813-.108 4.195-.195 1.38-.087 2.744-.195 4.086-.324 1.342-.13 2.662-.28 3.96-.451 1.249-.165 2.463-.348 3.64-.548 1.174-.2 2.312-.416 3.41-.649a70.522 70.522 0 0 0 3.17-.747 57.253 57.253 0 0 0 2.915-.84 43.99 43.99 0 0 0 2.605-.917 31.737 31.737 0 0 0 2.264-.978 22.115 22.115 0 0 0 1.918-1.036c.58-.354 1.102-.718 1.565-1.09.477-.382.886-.77 1.226-1.161.34-.39.612-.786.817-1.184.204-.397.34-.798.409-1.201.068-.403.07-.808.004-1.215a4.228 4.228 0 0 0-.395-1.204 5.9 5.9 0 0 0-.783-1.174 9.161 9.161 0 0 0-1.164-1.14c-.45-.372-.963-.74-1.538-1.1a21.649 21.649 0 0 0-1.822-1.019 30.342 30.342 0 0 0-2.12-.955 41.245 41.245 0 0 0-2.41-.892 54.405 54.405 0 0 0-2.688-.825 67.773 67.773 0 0 0-2.935-.749 80.324 80.324 0 0 0-3.126-.659 93.634 93.634 0 0 0-3.306-.568c-1.13-.173-2.29-.332-3.478-.475-1.231-.148-2.478-.278-3.74-.39a133.456 133.456 0 0 0-7.724-.446 139.683 139.683 0 0 0-11.819.168 124.6 124.6 0 0 0-3.808.279c-1.255.11-2.494.24-3.716.389-1.18.143-2.33.302-3.45.475a90.851 90.851 0 0 0-3.272.568c-1.061.205-2.09.425-3.086.66a64.89 64.89 0 0 0-2.89.748c-.927.264-1.807.54-2.64.825a38.88 38.88 0 0 0-2.355.892 28.35 28.35 0 0 0-2.063.955c-.639.33-1.226.67-1.761 1.019-.554.36-1.044.728-1.472 1.1a8.375 8.375 0 0 0-1.096 1.14c-.302.386-.54.778-.713 1.174-.173.397-.28.799-.322 1.204-.042.407-.016.812.077 1.215s.253.804.481 1.201c.228.398.524.793.887 1.184.365.391.797.779 1.296 1.161.486.372 1.03.736 1.631 1.09.603.355 1.263.7 1.98 1.036.718.336 1.492.663 2.322.978.832.317 1.719.622 2.66.916.947.296 1.936.577 2.966.841 1.031.265 2.104.514 3.214.747 1.113.233 2.263.45 3.45.65 1.19.199 2.414.382 3.673.547 1.308.171 2.637.322 3.987.45 1.35.13 2.72.238 4.106.325 1.386.087 2.79.152 4.206.195a139.6 139.6 0 0 0 4.288.066m.012.392c-6.021 0-11.755-.378-16.95-1.06-5.173-.68-9.794-1.657-13.628-2.857-3.804-1.191-6.823-2.598-8.839-4.145-1.995-1.533-3.004-3.2-2.821-4.932.18-1.712 1.508-3.325 3.74-4.778 2.212-1.44 5.315-2.724 9.08-3.795 3.738-1.062 8.14-1.917 12.99-2.505 4.831-.585 10.124-.908 15.678-.908 5.555 0 10.867.323 15.733.908 4.886.588 9.339 1.443 13.14 2.505 3.83 1.07 7.01 2.355 9.307 3.795 2.32 1.453 3.745 3.066 4.028 4.778.286 1.732-.622 3.4-2.526 4.932-1.922 1.547-4.857 2.954-8.59 4.145-3.762 1.2-8.324 2.177-13.456 2.857-5.155.682-10.866 1.06-16.886 1.06Z" fill="#5a5a5a"/></g><g data-name="Ellipse 1994" fill="#ececec"><path d="M89.938 53.038a132.629 132.629 0 0 1 15.732.908 88.948 88.948 0 0 1 13.14 2.505 36.45 36.45 0 0 1 9.307 3.794c2.32 1.453 3.745 3.067 4.028 4.779.286 1.731-.622 3.4-2.526 4.931a27.218 27.218 0 0 1-8.591 4.145 79.213 79.213 0 0 1-13.455 2.858 129.782 129.782 0 0 1-16.886 1.06 131.264 131.264 0 0 1-16.95-1.061A82.162 82.162 0 0 1 60.109 74.1a29.186 29.186 0 0 1-8.839-4.144c-2-1.532-3-3.2-2.822-4.931.18-1.712 1.509-3.326 3.741-4.779a34.2 34.2 0 0 1 9.079-3.794 86.022 86.022 0 0 1 12.991-2.506 131.248 131.248 0 0 1 15.679-.908Z"/><path d="M90.675 77.626c1.44 0 2.87-.022 4.284-.066 1.414-.043 2.813-.108 4.195-.195a122.83 122.83 0 0 0 4.086-.324c1.342-.13 2.662-.28 3.96-.451 1.249-.165 2.462-.348 3.64-.548a84.94 84.94 0 0 0 3.41-.649 70.518 70.518 0 0 0 3.17-.747 57.257 57.257 0 0 0 2.915-.84c.924-.295 1.793-.6 2.605-.917a31.737 31.737 0 0 0 2.264-.978 22.115 22.115 0 0 0 1.918-1.036c.58-.354 1.102-.718 1.565-1.09.477-.382.886-.77 1.226-1.161.34-.39.612-.786.817-1.184.204-.397.34-.798.409-1.201.069-.403.07-.808.004-1.215a4.228 4.228 0 0 0-.395-1.204 5.9 5.9 0 0 0-.783-1.174 9.161 9.161 0 0 0-1.164-1.14c-.45-.372-.963-.74-1.538-1.1a21.648 21.648 0 0 0-1.822-1.019 30.342 30.342 0 0 0-2.12-.955 41.242 41.242 0 0 0-2.41-.892 54.405 54.405 0 0 0-2.688-.825 67.767 67.767 0 0 0-2.935-.749 80.324 80.324 0 0 0-3.126-.659 93.633 93.633 0 0 0-3.306-.568c-1.13-.173-2.29-.332-3.478-.475-1.23-.148-2.478-.278-3.74-.39-1.26-.11-2.536-.204-3.824-.278a139.683 139.683 0 0 0-15.719 0c-1.284.074-2.554.167-3.808.279-1.255.11-2.494.24-3.716.389-1.18.143-2.33.302-3.45.475a90.851 90.851 0 0 0-3.272.568c-1.061.205-2.09.425-3.086.66a64.89 64.89 0 0 0-2.89.748c-.927.264-1.807.54-2.64.825a38.88 38.88 0 0 0-2.355.892 28.35 28.35 0 0 0-2.063.955c-.639.33-1.226.67-1.761 1.019-.554.36-1.044.728-1.472 1.1a8.375 8.375 0 0 0-1.096 1.14c-.302.386-.54.778-.713 1.174-.173.397-.28.799-.322 1.204-.042.407-.016.812.077 1.215s.253.804.481 1.2c.228.4.524.794.887 1.185.365.391.797.779 1.296 1.161.486.372 1.03.736 1.631 1.09.603.354 1.263.7 1.98 1.036a33.87 33.87 0 0 0 2.322.978c.832.317 1.719.622 2.66.916.947.296 1.936.577 2.966.841 1.031.265 2.103.514 3.214.747a87.78 87.78 0 0 0 3.45.65c1.19.199 2.414.382 3.673.547 1.308.171 2.637.321 3.986.45 1.35.13 2.72.238 4.106.325 1.387.087 2.79.152 4.207.195 1.417.044 2.847.066 4.288.066m.012.392c-6.021 0-11.755-.378-16.95-1.06-5.173-.68-9.794-1.657-13.628-2.857-3.804-1.191-6.823-2.598-8.839-4.145-1.995-1.533-3.004-3.2-2.821-4.932.18-1.712 1.508-3.325 3.74-4.778 2.212-1.44 5.315-2.724 9.08-3.795 3.738-1.062 8.14-1.917 12.99-2.505 4.831-.585 10.124-.908 15.679-.908 5.554 0 10.866.323 15.732.908 4.886.588 9.339 1.443 13.14 2.505 3.83 1.07 7.01 2.355 9.307 3.795 2.32 1.453 3.745 3.066 4.028 4.778.286 1.732-.622 3.4-2.526 4.932-1.922 1.547-4.857 2.954-8.59 4.145-3.762 1.2-8.324 2.177-13.456 2.857-5.155.682-10.866 1.06-16.886 1.06Z" fill="#5a5a5a"/></g><g data-name="Ellipse 1995" fill="#f2f2f2"><path d="M101.622 42.43a132.629 132.629 0 0 1 15.733.908 88.947 88.947 0 0 1 13.14 2.505 36.45 36.45 0 0 1 9.307 3.794c2.32 1.453 3.745 3.067 4.028 4.779.286 1.731-.622 3.4-2.526 4.931a27.218 27.218 0 0 1-8.591 4.145 79.213 79.213 0 0 1-13.456 2.858 129.782 129.782 0 0 1-16.886 1.06 131.264 131.264 0 0 1-16.95-1.061 82.162 82.162 0 0 1-13.628-2.857 29.186 29.186 0 0 1-8.839-4.144c-2-1.532-3-3.2-2.822-4.931.18-1.712 1.509-3.326 3.741-4.779a34.2 34.2 0 0 1 9.079-3.794 86.022 86.022 0 0 1 12.991-2.506 131.248 131.248 0 0 1 15.679-.908Z"/><path d="M102.359 67.018c1.44 0 2.87-.022 4.284-.065 1.414-.044 2.813-.11 4.195-.196 1.38-.087 2.744-.195 4.086-.324 1.342-.13 2.662-.28 3.96-.451 1.249-.165 2.462-.348 3.64-.548 1.174-.2 2.312-.416 3.41-.649a70.52 70.52 0 0 0 3.17-.747 57.255 57.255 0 0 0 2.915-.84c.924-.295 1.793-.6 2.605-.917a31.74 31.74 0 0 0 2.264-.978 22.115 22.115 0 0 0 1.918-1.036c.58-.354 1.102-.718 1.565-1.09.477-.382.886-.77 1.226-1.161.34-.39.613-.786.817-1.184.204-.397.34-.798.409-1.201.069-.403.07-.808.004-1.214a4.228 4.228 0 0 0-.395-1.205 5.9 5.9 0 0 0-.783-1.174 9.161 9.161 0 0 0-1.164-1.139c-.45-.373-.963-.74-1.538-1.101a21.649 21.649 0 0 0-1.822-1.018 30.344 30.344 0 0 0-2.12-.956 41.245 41.245 0 0 0-2.41-.892 54.407 54.407 0 0 0-2.688-.825 67.768 67.768 0 0 0-2.935-.749 80.32 80.32 0 0 0-3.125-.659 93.633 93.633 0 0 0-3.307-.567c-1.13-.174-2.29-.333-3.478-.476-1.23-.148-2.478-.278-3.74-.39-1.26-.11-2.536-.204-3.824-.278a139.683 139.683 0 0 0-15.719 0c-1.284.074-2.554.167-3.808.279-1.255.111-2.494.24-3.716.39-1.18.142-2.33.3-3.45.475a90.852 90.852 0 0 0-3.272.567c-1.061.205-2.09.425-3.086.66-.998.234-1.962.484-2.89.748-.927.264-1.807.54-2.64.825a38.88 38.88 0 0 0-2.355.892 28.35 28.35 0 0 0-2.063.956c-.639.329-1.226.669-1.761 1.018-.554.36-1.044.728-1.472 1.101a8.375 8.375 0 0 0-1.096 1.14c-.302.385-.54.777-.713 1.173-.173.397-.28.799-.322 1.205-.041.406-.016.811.077 1.214.093.403.253.804.481 1.201.228.398.524.793.887 1.184.365.392.797.78 1.296 1.162.486.371 1.03.735 1.631 1.089.603.355 1.263.7 1.98 1.036a33.87 33.87 0 0 0 2.322.978c.832.317 1.719.622 2.66.916.947.296 1.936.577 2.966.841 1.031.265 2.104.515 3.214.747a87.78 87.78 0 0 0 3.45.65c1.19.199 2.414.382 3.673.547 1.308.171 2.637.322 3.986.45 1.35.13 2.72.238 4.107.325 1.386.087 2.79.152 4.206.196a139.6 139.6 0 0 0 4.288.065m.012.392c-6.021 0-11.755-.378-16.95-1.06-5.173-.68-9.794-1.657-13.628-2.857-3.804-1.191-6.823-2.598-8.839-4.145-1.995-1.533-3.004-3.2-2.821-4.931.18-1.713 1.509-3.326 3.741-4.78 2.211-1.439 5.314-2.723 9.08-3.793 3.737-1.063 8.139-1.918 12.99-2.506 4.83-.585 10.124-.908 15.678-.908s10.866.323 15.733.908c4.885.588 9.338 1.443 13.14 2.506 3.829 1.07 7.009 2.354 9.306 3.794 2.32 1.453 3.745 3.066 4.028 4.779.286 1.73-.622 3.398-2.526 4.93-1.922 1.548-4.857 2.955-8.59 4.146-3.762 1.2-8.324 2.177-13.456 2.857-5.155.682-10.866 1.06-16.886 1.06Z" fill="#5a5a5a"/></g><g data-name="Ellipse 1996" fill="#ececec"><path d="M93.791 31.824a132.63 132.63 0 0 1 15.733.908 88.948 88.948 0 0 1 13.14 2.505 36.45 36.45 0 0 1 9.307 3.794c2.32 1.453 3.745 3.067 4.028 4.779.286 1.731-.622 3.4-2.526 4.931a27.218 27.218 0 0 1-8.59 4.145 79.212 79.212 0 0 1-13.456 2.857 129.782 129.782 0 0 1-16.886 1.061 131.265 131.265 0 0 1-16.95-1.061 82.162 82.162 0 0 1-13.628-2.857 29.187 29.187 0 0 1-8.839-4.144c-2-1.532-3-3.2-2.822-4.931.18-1.712 1.509-3.326 3.741-4.779a34.2 34.2 0 0 1 9.079-3.794 86.022 86.022 0 0 1 12.991-2.506 131.248 131.248 0 0 1 15.678-.908Z"/><path d="M94.529 56.412c1.44 0 2.87-.022 4.284-.066 1.414-.043 2.813-.108 4.195-.195a122.84 122.84 0 0 0 4.086-.324c1.342-.13 2.662-.28 3.96-.451a100.24 100.24 0 0 0 3.64-.548c1.174-.2 2.312-.416 3.41-.649a70.52 70.52 0 0 0 3.17-.747 57.256 57.256 0 0 0 2.915-.84c.924-.295 1.793-.6 2.605-.917a31.74 31.74 0 0 0 2.264-.978 22.114 22.114 0 0 0 1.918-1.036c.58-.355 1.102-.718 1.565-1.09.477-.382.886-.77 1.226-1.161.34-.391.612-.786.817-1.184.204-.397.34-.798.409-1.201.068-.403.07-.808.004-1.215a4.228 4.228 0 0 0-.395-1.204 5.9 5.9 0 0 0-.783-1.174 9.16 9.16 0 0 0-1.164-1.14c-.45-.372-.963-.74-1.538-1.1a21.65 21.65 0 0 0-1.822-1.019 30.34 30.34 0 0 0-2.12-.955 41.244 41.244 0 0 0-2.41-.892 54.405 54.405 0 0 0-2.688-.825 67.773 67.773 0 0 0-2.935-.749 80.325 80.325 0 0 0-3.126-.659 93.633 93.633 0 0 0-3.306-.568c-1.13-.173-2.29-.332-3.478-.475a118.18 118.18 0 0 0-3.74-.39 133.456 133.456 0 0 0-7.724-.446 139.684 139.684 0 0 0-11.819.168c-1.284.074-2.554.167-3.808.279-1.255.11-2.494.24-3.716.389-1.18.143-2.33.302-3.45.475a90.85 90.85 0 0 0-3.272.568c-1.061.205-2.09.425-3.086.66a64.89 64.89 0 0 0-2.89.748c-.927.264-1.807.54-2.64.825a38.88 38.88 0 0 0-2.355.892 28.35 28.35 0 0 0-2.063.955c-.639.33-1.226.67-1.761 1.019-.554.36-1.044.728-1.472 1.1a8.375 8.375 0 0 0-1.096 1.14c-.302.386-.54.778-.713 1.174-.173.397-.28.799-.322 1.204-.042.407-.016.812.077 1.215s.253.804.481 1.2c.228.4.524.794.887 1.185.365.391.797.779 1.296 1.161.486.372 1.03.735 1.631 1.09.603.354 1.263.7 1.98 1.036a33.87 33.87 0 0 0 2.322.978c.832.317 1.719.622 2.66.916.947.296 1.936.577 2.966.841 1.031.265 2.104.514 3.214.747 1.113.233 2.263.45 3.45.65 1.19.199 2.414.381 3.673.547 1.308.171 2.637.321 3.987.45 1.35.13 2.72.238 4.106.325 1.386.087 2.79.152 4.206.195 1.417.044 2.847.066 4.288.066m.012.392c-6.021 0-11.755-.378-16.95-1.06-5.173-.68-9.794-1.657-13.628-2.857-3.804-1.191-6.823-2.598-8.839-4.145-1.995-1.533-3.004-3.2-2.821-4.932.18-1.712 1.508-3.325 3.74-4.778 2.212-1.44 5.315-2.724 9.08-3.795 3.738-1.062 8.14-1.917 12.99-2.505 4.831-.585 10.124-.908 15.678-.908 5.555 0 10.867.323 15.733.908 4.886.588 9.339 1.443 13.14 2.505 3.83 1.07 7.01 2.355 9.307 3.795 2.32 1.453 3.745 3.066 4.028 4.778.286 1.732-.622 3.4-2.526 4.932-1.922 1.547-4.857 2.954-8.59 4.145-3.762 1.2-8.324 2.177-13.456 2.856-5.155.683-10.866 1.061-16.886 1.061Z" fill="#5a5a5a"/></g><g data-name="Ellipse 1997" fill="#f2f2f2"><path d="M96.36 21.216a132.629 132.629 0 0 1 15.733.908 88.948 88.948 0 0 1 13.14 2.505 36.45 36.45 0 0 1 9.307 3.794c2.32 1.453 3.745 3.067 4.028 4.779.286 1.731-.622 3.4-2.526 4.931a27.218 27.218 0 0 1-8.59 4.145 79.213 79.213 0 0 1-13.456 2.858 129.782 129.782 0 0 1-16.886 1.06 131.264 131.264 0 0 1-16.95-1.061 82.162 82.162 0 0 1-13.628-2.857 29.187 29.187 0 0 1-8.839-4.144c-2-1.532-3-3.2-2.822-4.931.18-1.712 1.509-3.326 3.741-4.779a34.2 34.2 0 0 1 9.079-3.794 86.022 86.022 0 0 1 12.991-2.506 131.247 131.247 0 0 1 15.678-.908Z"/><path d="M97.098 45.804c1.44 0 2.87-.022 4.284-.066 1.414-.043 2.813-.108 4.195-.195a122.84 122.84 0 0 0 4.086-.324c1.342-.13 2.662-.28 3.96-.451 1.248-.165 2.462-.348 3.64-.548 1.174-.2 2.312-.416 3.41-.649a70.52 70.52 0 0 0 3.17-.747 57.253 57.253 0 0 0 2.915-.84c.924-.295 1.793-.6 2.605-.917a31.736 31.736 0 0 0 2.264-.978 22.115 22.115 0 0 0 1.917-1.036c.58-.354 1.103-.718 1.566-1.09.477-.382.886-.77 1.226-1.161.34-.39.612-.786.817-1.184.204-.397.34-.798.409-1.201.068-.403.07-.808.004-1.215a4.228 4.228 0 0 0-.395-1.204 5.9 5.9 0 0 0-.783-1.174 9.162 9.162 0 0 0-1.164-1.14c-.45-.372-.963-.74-1.538-1.1a21.65 21.65 0 0 0-1.822-1.019 30.342 30.342 0 0 0-2.12-.955 41.245 41.245 0 0 0-2.41-.892 54.405 54.405 0 0 0-2.688-.825 67.773 67.773 0 0 0-2.935-.749 80.324 80.324 0 0 0-3.126-.659 93.631 93.631 0 0 0-3.306-.568c-1.13-.173-2.29-.332-3.478-.475-1.231-.148-2.478-.278-3.74-.39a133.455 133.455 0 0 0-7.724-.446 139.683 139.683 0 0 0-11.819.168 124.6 124.6 0 0 0-3.808.279c-1.255.11-2.494.24-3.716.389-1.18.143-2.33.302-3.45.475a90.85 90.85 0 0 0-3.272.568c-1.061.205-2.09.425-3.086.66a64.89 64.89 0 0 0-2.89.748c-.927.264-1.807.54-2.64.825a38.88 38.88 0 0 0-2.355.892 28.35 28.35 0 0 0-2.063.955c-.639.33-1.226.67-1.762 1.019-.553.36-1.043.728-1.471 1.1a8.375 8.375 0 0 0-1.096 1.14c-.302.386-.54.778-.713 1.174-.173.397-.28.799-.322 1.204-.042.407-.016.812.077 1.215s.253.804.48 1.2c.23.4.525.794.888 1.185.365.391.797.779 1.296 1.161.486.372 1.03.736 1.631 1.09.603.354 1.263.7 1.98 1.036.718.336 1.492.663 2.322.978.832.317 1.719.622 2.66.916.947.296 1.936.577 2.966.841a73.39 73.39 0 0 0 3.214.747c1.113.233 2.263.45 3.45.65 1.19.199 2.414.382 3.673.547 1.308.171 2.637.322 3.986.45 1.35.13 2.72.238 4.106.325 1.387.087 2.79.152 4.207.195 1.417.044 2.847.066 4.288.066m.012.392c-6.021 0-11.755-.378-16.95-1.06-5.173-.68-9.794-1.657-13.628-2.857-3.804-1.191-6.823-2.598-8.839-4.145-1.995-1.533-3.004-3.2-2.821-4.932.18-1.712 1.508-3.325 3.74-4.778 2.212-1.44 5.315-2.724 9.08-3.795 3.738-1.062 8.14-1.917 12.99-2.505 4.831-.585 10.124-.908 15.678-.908 5.555 0 10.867.323 15.733.908 4.886.588 9.339 1.443 13.14 2.505 3.83 1.07 7.01 2.355 9.307 3.795 2.32 1.453 3.745 3.066 4.028 4.778.286 1.732-.622 3.4-2.526 4.932-1.922 1.547-4.857 2.954-8.59 4.145-3.762 1.2-8.324 2.177-13.456 2.857-5.155.682-10.866 1.06-16.886 1.06Z" fill="#5a5a5a"/></g><g data-name="Ellipse 1998" fill="#ececec"><path d="M82.107 10.608a132.629 132.629 0 0 1 15.732.908 88.948 88.948 0 0 1 13.14 2.505 36.45 36.45 0 0 1 9.307 3.794c2.32 1.453 3.745 3.067 4.028 4.779.286 1.731-.622 3.4-2.526 4.931a27.218 27.218 0 0 1-8.59 4.145 79.213 79.213 0 0 1-13.456 2.858 129.782 129.782 0 0 1-16.886 1.06 131.264 131.264 0 0 1-16.95-1.061 82.162 82.162 0 0 1-13.628-2.857 29.187 29.187 0 0 1-8.839-4.144c-2-1.532-3-3.2-2.822-4.931.18-1.712 1.509-3.326 3.741-4.779a34.2 34.2 0 0 1 9.079-3.794 86.022 86.022 0 0 1 12.991-2.506 131.248 131.248 0 0 1 15.679-.908Z"/><path d="M82.844 35.196c1.44 0 2.87-.022 4.284-.066 1.414-.043 2.813-.108 4.195-.195 1.38-.087 2.744-.195 4.086-.324 1.342-.13 2.662-.28 3.96-.451 1.249-.165 2.462-.348 3.64-.548a84.94 84.94 0 0 0 3.41-.649 70.517 70.517 0 0 0 3.17-.747 57.251 57.251 0 0 0 2.915-.84c.924-.295 1.793-.6 2.605-.917a31.742 31.742 0 0 0 2.264-.978 22.117 22.117 0 0 0 1.918-1.036c.58-.354 1.102-.718 1.565-1.09.477-.382.886-.77 1.226-1.161.34-.39.612-.786.817-1.184.204-.397.34-.798.409-1.201.069-.403.07-.808.004-1.215a4.228 4.228 0 0 0-.395-1.204 5.9 5.9 0 0 0-.783-1.174 9.16 9.16 0 0 0-1.164-1.14c-.45-.372-.963-.74-1.538-1.1a21.649 21.649 0 0 0-1.822-1.019 30.344 30.344 0 0 0-2.12-.955 41.245 41.245 0 0 0-2.41-.892 54.406 54.406 0 0 0-2.688-.825 67.764 67.764 0 0 0-2.935-.749 80.32 80.32 0 0 0-3.126-.659 93.634 93.634 0 0 0-3.306-.568c-1.13-.173-2.29-.332-3.478-.475-1.231-.148-2.478-.278-3.74-.39-1.26-.11-2.536-.204-3.824-.278a139.683 139.683 0 0 0-15.719 0c-1.284.074-2.554.167-3.808.279-1.255.11-2.494.24-3.716.389-1.18.143-2.33.302-3.45.475a90.851 90.851 0 0 0-3.272.568 77.44 77.44 0 0 0-3.086.66 64.89 64.89 0 0 0-2.89.748c-.927.264-1.807.54-2.64.825a38.88 38.88 0 0 0-2.355.892 28.35 28.35 0 0 0-2.063.955c-.639.33-1.226.67-1.761 1.019-.554.36-1.044.728-1.472 1.1a8.375 8.375 0 0 0-1.096 1.14c-.302.386-.54.778-.713 1.174-.173.397-.28.799-.322 1.204-.042.407-.016.812.077 1.215s.253.804.481 1.2c.228.4.524.794.887 1.185.365.391.797.779 1.296 1.161.486.372 1.03.736 1.631 1.09.603.354 1.263.7 1.98 1.036.718.336 1.492.663 2.322.978.832.317 1.719.622 2.66.916.947.296 1.936.577 2.966.841a73.39 73.39 0 0 0 3.214.747 87.78 87.78 0 0 0 3.45.65c1.19.199 2.414.382 3.673.547 1.308.171 2.637.321 3.987.45 1.35.13 2.72.238 4.106.325 1.386.087 2.79.152 4.206.195 1.417.044 2.847.066 4.288.066m.012.392c-6.021 0-11.755-.378-16.95-1.06-5.173-.68-9.794-1.657-13.628-2.857-3.804-1.191-6.823-2.598-8.839-4.145-1.995-1.533-3.004-3.2-2.821-4.932.18-1.712 1.508-3.325 3.74-4.778 2.212-1.44 5.315-2.724 9.08-3.795 3.738-1.062 8.14-1.917 12.99-2.505 4.831-.585 10.124-.908 15.679-.908 5.554 0 10.866.323 15.732.908 4.886.588 9.339 1.443 13.14 2.505 3.83 1.07 7.01 2.355 9.307 3.795 2.32 1.453 3.745 3.066 4.028 4.778.286 1.732-.622 3.4-2.526 4.932-1.922 1.547-4.857 2.954-8.59 4.145-3.762 1.2-8.324 2.177-13.456 2.857-5.155.682-10.866 1.06-16.886 1.06Z" fill="#5a5a5a"/></g><g data-name="Ellipse 1999" fill="#f2f2f2"><path d="M93.791 0a132.629 132.629 0 0 1 15.733.908 88.948 88.948 0 0 1 13.14 2.505 36.45 36.45 0 0 1 9.307 3.794c2.32 1.453 3.745 3.067 4.028 4.779.286 1.731-.622 3.4-2.526 4.931a27.218 27.218 0 0 1-8.59 4.145 79.212 79.212 0 0 1-13.456 2.858 129.782 129.782 0 0 1-16.886 1.06 131.264 131.264 0 0 1-16.95-1.061 82.162 82.162 0 0 1-13.628-2.857 29.187 29.187 0 0 1-8.839-4.144c-2-1.532-3-3.2-2.822-4.931.18-1.712 1.509-3.326 3.741-4.779a34.2 34.2 0 0 1 9.079-3.794A86.021 86.021 0 0 1 78.113.908 131.248 131.248 0 0 1 93.791 0Z"/><path d="M94.529 24.588c1.44 0 2.87-.022 4.284-.066 1.414-.043 2.813-.108 4.195-.195a122.83 122.83 0 0 0 4.086-.324c1.342-.13 2.662-.28 3.96-.451a100.24 100.24 0 0 0 3.64-.548c1.174-.2 2.312-.416 3.41-.649a70.522 70.522 0 0 0 3.17-.747 57.26 57.26 0 0 0 2.915-.84c.924-.295 1.793-.6 2.605-.917a31.74 31.74 0 0 0 2.264-.978 22.115 22.115 0 0 0 1.918-1.036c.58-.354 1.102-.718 1.565-1.09.477-.382.886-.77 1.226-1.161.34-.39.612-.786.817-1.184.204-.397.34-.798.409-1.201.068-.403.07-.808.004-1.215a4.228 4.228 0 0 0-.395-1.204 5.9 5.9 0 0 0-.783-1.174 9.16 9.16 0 0 0-1.164-1.14c-.45-.372-.963-.74-1.538-1.1a21.65 21.65 0 0 0-1.822-1.019 30.34 30.34 0 0 0-2.12-.955 41.245 41.245 0 0 0-2.41-.892 54.405 54.405 0 0 0-2.688-.825 67.773 67.773 0 0 0-2.935-.749 80.324 80.324 0 0 0-3.126-.659 93.633 93.633 0 0 0-3.306-.568c-1.13-.173-2.29-.332-3.478-.475a118.18 118.18 0 0 0-3.74-.39A133.456 133.456 0 0 0 97.768.39a139.683 139.683 0 0 0-11.819.168c-1.284.074-2.554.167-3.808.279-1.255.11-2.494.24-3.716.389-1.18.143-2.33.302-3.45.475a90.85 90.85 0 0 0-3.272.568c-1.061.205-2.09.425-3.086.66a64.89 64.89 0 0 0-2.89.748c-.927.264-1.807.54-2.64.825a38.88 38.88 0 0 0-2.355.892 28.35 28.35 0 0 0-2.063.955c-.639.33-1.226.67-1.761 1.019-.554.36-1.044.728-1.472 1.1a8.375 8.375 0 0 0-1.096 1.14c-.302.386-.54.778-.713 1.174-.173.397-.28.799-.322 1.204-.042.407-.016.812.077 1.215s.253.804.481 1.2c.228.4.524.794.887 1.185.365.391.797.779 1.296 1.161.486.372 1.03.736 1.631 1.09.603.354 1.263.7 1.98 1.036a33.87 33.87 0 0 0 2.322.978c.832.317 1.719.622 2.66.916.947.296 1.936.577 2.966.841 1.031.265 2.104.514 3.214.747 1.113.233 2.263.45 3.45.65 1.19.199 2.414.382 3.673.547 1.308.171 2.637.321 3.987.45 1.35.13 2.72.238 4.106.325 1.386.087 2.79.152 4.206.195 1.417.044 2.847.066 4.288.066m.012.392c-6.021 0-11.755-.378-16.95-1.06-5.173-.68-9.794-1.657-13.628-2.857-3.804-1.191-6.823-2.598-8.839-4.145-1.995-1.533-3.004-3.2-2.821-4.932.18-1.712 1.508-3.325 3.74-4.778 2.212-1.44 5.315-2.724 9.08-3.795 3.738-1.062 8.14-1.917 12.99-2.505C82.944.323 88.237 0 93.791 0c5.555 0 10.867.323 15.733.908 4.886.588 9.339 1.443 13.14 2.505 3.83 1.07 7.01 2.355 9.307 3.795 2.32 1.453 3.745 3.066 4.028 4.778.286 1.732-.622 3.4-2.526 4.932-1.922 1.547-4.857 2.954-8.59 4.145-3.762 1.2-8.324 2.177-13.456 2.857-5.155.682-10.866 1.06-16.886 1.06Z" fill="#5a5a5a"/></g><path data-name="£" d="m89.97 11.068 4.824-1.566q.269-.087.6-.029t.626.249l.8.509q.255.163.249.282t-.275.208l-4.3 1.4q.842.339 1.244.525t.636.337q.355.23.668.55t.558.73q.986-.291 2.112-.542t1.2-.275q.6-.2 1.121-.689t.833-.593q.509-.167 1.449-.038t1.4.423q.72.459.156 1.2t-2.132 1.264q-.875.29-2.647.629t-2.458.566q-.881.291-1.553.833t-.719.558q-.428.142-1.333-.045t-1.3-.442q-.279-.183.126-.624.218-.247.324-.4.3-.417.188-.707t-.773-.713q-.488-.318-1.192-.635t-1.7-.671l-1.993.65q-.274.089-.6.03t-.627-.254l-.779-.511q-.252-.165-.248-.29t.278-.214l1.307-.424q-1.33-.424-2.224-.8t-1.468-.754q-1.727-1.127-1.088-2.237t3.505-2.02q2.319-.741 4.183-.843t2.9.473l1 .556.109.07q.5.321.337.595t-1.032.554q-.7.227-1.86-.127-.227-.074-.349-.109-.763-.216-1.552-.2t-1.502.24q-1.1.352-1.291.845t.587 1q.272.177.932.451t2.743 1.025Z" fill="#31A9FD"/></g></svg>
