<svg xmlns="http://www.w3.org/2000/svg" width="163" height="163"><defs><clipPath id="a"><circle data-name="Ellipse 2044" cx="81.5" cy="81.5" r="81.5" transform="translate(364 5291)" fill="none" stroke="#c6c6c6" stroke-width="2"/></clipPath><filter id="b" x="-91" y="9" width="273" height="133" filterUnits="userSpaceOnUse"><feOffset dy="10"/><feGaussianBlur stdDeviation="15" result="blur"/><feFlood flood-color="#33b0ff" flood-opacity=".278"/><feComposite operator="in" in2="blur"/><feComposite in="SourceGraphic"/></filter></defs><g data-name="Group 3578" transform="translate(-94.713 -648)"><circle data-name="Ellipse 2041" cx="81.5" cy="81.5" r="81.5" transform="translate(94.713 648)" fill="#fff"/><text data-name="ENQUIRE NOW" transform="translate(112.713 718)" fill="#fff" font-size="12" font-family="Montserrat-SemiBold, Montserrat" font-weight="600" letter-spacing="-.01em"><tspan x="0" y="0">ENQUIRE NOW</tspan></text><g data-name="Mask Group 162" transform="translate(-269.287 -4643)" clip-path="url(#a)"><g transform="translate(364 5291)" filter="url(#b)"><rect data-name="Rectangle 4395" width="183" height="43" rx="5" transform="translate(-46 44)" fill="#31A9FD"/></g></g><text data-name="ENQUIRE NOW" transform="translate(115.713 718)" fill="#fff" font-size="12" font-family="Montserrat-SemiBold, Montserrat" font-weight="600" letter-spacing="-.01em"><tspan x="0" y="0">ENQUIRE NOW</tspan></text><g data-name="Mask Group 163" transform="translate(-269.287 -4643)" clip-path="url(#a)"><path data-name="Path 6099" d="M436.373 5368.722c2.735-5.279 9.745-1.327 18.199-.09s12.258 4.758 15.504 6.125 9.422 2.84 14.015 5.14 6.62 4.96 19.073 11.123 19.812 8.606 28.144 13.638 7.85 6.2 12.446 7.942 5.744-.085 14.04 9.01 14.98 14.062 24.093 28.352 16.656 14.013 24.903 20.2 14.061 9.874 41.62 30.04 31.766 22.225 61.254 39.867 74.605 32.884 81.825 37.33 23.697 19.408 32.107 27.825 16.894 10.464 20.465 13.228 8.399 19.787 7.869 22.415-1.1 10.255-8.992 19.367-7.749 8.105-16.256 16.44-7.428 13.247-15.905 15.136-21.55-3.692-21.55-3.692a278.129 278.129 0 0 1-34.803-17.016c-16.551-9.821-11.982-8.483-31.756-23.183s-23.728-17.654-60.83-51.5-81.205-75.062-96.343-84.434-24.912-3.501-42-14.327a214.072 214.072 0 0 1-28.796-21.662c-3.311-2.717-3.094-2.939-5.248-9.396s-3.607-11.525-2.368-15.548 4.979-2.769 4.036-4.209-6.168-7.255-4.629-15.01 6.446-5.225 6.342-6.897-5.026-9.374-2.682-13.097 10.035-1.922-.897-7.308-19.286-11.588-30.755-17.712-10.586-5.534-15.12-6.78-9.74-6.039-7.005-11.317Z" fill="#f4f4f4" stroke="#707070"/></g><path data-name="Path 6100" d="M165.892 725.964c3.077-5.428 9.216-3.1 13.136-1.613s2.317 2.958.752 6.122-3.986 4.886-6.827 4.095-10.138-3.175-7.061-8.604Z" fill="#fafafa" stroke="#707070"/></g></svg>
