<svg xmlns="http://www.w3.org/2000/svg" width="163" height="163"><defs><clipPath id="a"><circle data-name="Ellipse 2273" cx="81.5" cy="81.5" r="81.5" transform="translate(545 976)" fill="#fff" stroke="#707070"/></clipPath><clipPath id="b"><circle data-name="Ellipse 1903" cx="64" cy="64" r="64" transform="translate(-.232 -.18)" fill="#17aef0"/></clipPath></defs><g data-name="Group 3584"><g data-name="Group 3549"><g data-name="Group 2420" transform="translate(18 19.466)"><path data-name="Path 7733" d="M63.5-19.466a81.5 81.5 0 1 1-81.5 81.5 81.5 81.5 0 0 1 81.5-81.5Z" fill="#fff"/><g data-name="Mask Group 343" transform="translate(-563 -995.466)" clip-path="url(#a)"><path data-name="Path 7732" d="m660.066 1038.397 71.39 53.438-67.932 46.807-65.989-72.441 24.514 12.07Z" fill="#f7f7f7"/></g><circle data-name="Ellipse 1726" cx="64" cy="64" r="64" transform="translate(-1 -1.465)" fill="#31A9FD"/><g data-name="Mask Group 131" transform="translate(-.768 -1.286)" opacity=".997" clip-path="url(#b)"><path data-name="Path 5545" d="m97.431 43.996 49.722 37.287-55.055 52.266-56.8-61.525 24.514 12.07Z" fill="#50acfb"/></g><path data-name="Line 5" fill="none" stroke="#fff" stroke-linecap="round" stroke-width="8" opacity=".997" d="m37.477 68.813 20.078 17.34"/><path data-name="Path 6025" d="M94.4 45.956 57.811 86.091" fill="none" stroke="#fff" stroke-linecap="round" stroke-width="8" opacity=".997"/></g></g></g></svg>
