<svg xmlns="http://www.w3.org/2000/svg" width="26.922" height="26.922"><path d="M7.807 0h11.308a7.813 7.813 0 0 1 7.807 7.807v11.308a7.807 7.807 0 0 1-7.807 7.807H7.807A7.813 7.813 0 0 1 0 19.115V7.807A7.807 7.807 0 0 1 7.807 0m-.269 2.692a4.846 4.846 0 0 0-4.846 4.846v11.846a4.843 4.843 0 0 0 4.846 4.846h11.846a4.846 4.846 0 0 0 4.846-4.846V7.538a4.843 4.843 0 0 0-4.846-4.846H7.538m12.99 2.019a1.683 1.683 0 1 1-1.683 1.683 1.683 1.683 0 0 1 1.683-1.683M13.461 6.73a6.73 6.73 0 1 1-6.73 6.73 6.73 6.73 0 0 1 6.73-6.73m0 2.692a4.038 4.038 0 1 0 4.039 4.039 4.038 4.038 0 0 0-4.039-4.038Z" fill="#bebebe"/></svg>