<svg xmlns="http://www.w3.org/2000/svg" width="163.695" height="174.142"><defs><clipPath id="a"><circle data-name="Ellipse 1970" cx="81.5" cy="81.5" r="81.5" transform="translate(1362 1802)" fill="none" stroke="#c6c6c6" stroke-width="2"/></clipPath><clipPath id="b"><path data-name="Path 5809" d="M3094.943-7479.125a2.892 2.892 0 0 1 1.575-1.409c1.085-.353 1.426.058 2.852 0s2.853-.236 2.853-.236-.044-.082-.984.449-1 1.239-2.775 1.674a2.267 2.267 0 0 1-2.252-.478 5.359 5.359 0 0 0-1.269 0Z" transform="translate(-3094.943 7480.774)" fill="#5c5c5c"/></clipPath><clipPath id="c"><path data-name="Path 5845" d="M.258.034a5.065 5.065 0 0 1 2.131.208 16.783 16.783 0 0 1 2.352.77c.149.141-.708 0-.873.09a5.223 5.223 0 0 1-2.334.791C.634 1.836.499.947.367.961s0 .587 0 .587a1.31 1.31 0 0 1 .091.477C.438 2.212-.415.103.258.034Z" fill="none" stroke="#4a4a4a" stroke-width=".3"/></clipPath></defs><g data-name="Group 3568"><path data-name="Path 5730" d="M118.136 38.537a1.057 1.057 0 0 1 1.159.375 20.8 20.8 0 0 1 2.16 3.62c.717 1.568 1.637 2.3 2.519 2.3a30.238 30.238 0 0 1 6.011 0 39.552 39.552 0 0 1 6.484 1.467c2.131.523 2.357.243 4.851.935a24.453 24.453 0 0 1 5.123 1.836c2.873 1.254 5.585 2.836 7.78 3.745a23.456 23.456 0 0 1 5.614 3.6c1.167 1 2.279 3.354 2.863 5.309s.881 3.733.844 8.574a96.448 96.448 0 0 1-.88 10.53c-.047.713.392 1.181.264 1.6s-1.3 6.482-1.591 8.139-.448 7.11-1.717 12.964a39.776 39.776 0 0 1-3.357 10.45c-1.441 3.171-1.869 4.839-3.349 7.569s-3.565 5.579-4.919 7.862-1.67 3.019-2.9 3.744-4.4 2.625-6.108 3.389-3.4-.042-5.014-.707-1.932-2.087-3.383-3.616-2.584-1.823-5.12-3.8a40.54 40.54 0 0 1-5.021-4.114c-4.3-3.84-11.621-10.579-11.934-11.021a5.406 5.406 0 0 1-.468-1.685s-.388-.015-1.067-.8-.924-1.463-1.648-2.332-.717-.661-1.189-1.266-.383-.845-1.172-1.362a32.618 32.618 0 0 1-2.674-2.373c-.521-.451 1.565.155 1.565.155a2.4 2.4 0 0 1-.591-2.266 19.184 19.184 0 0 1 1.5-4.247l-2.046-36.625a7.066 7.066 0 0 0 2.448 1.511c1.477.523 3.828.882 5.155.159a55.3 55.3 0 0 0 5.46-4.4c1.412-1.175 3.427-2.81 4.031-4.386s2.5-6.7 2.406-7.923a64.741 64.741 0 0 0-2.089-6.91Z" fill="#eaeaea" stroke="#4a4a4a" stroke-width=".3"/><path data-name="Path 5731" d="M96.694 61.052s.75.139 2.667-1.146 3.5-2.832 5-4a30.675 30.675 0 0 0 4.33-3.345c2.187-2.1 3.25-3.143 4.43-5.848s1.445-7.1 1.928-7.393.518-.473 1.494-1.4 2.147-4.025 2.489-7.374a13.623 13.623 0 0 0-.3-3.491 11.233 11.233 0 0 0-.925-3.585c-.4-.732-.61-.758-.749-.839-.066-.036-.006.122-.115-1.015s-.76-9.86-4.442-14.784S102.876.514 100.247.244A21.929 21.929 0 0 0 88.21 2.879a20.268 20.268 0 0 0-7.943 7.526 30.245 30.245 0 0 0-3.187 6.512 17.75 17.75 0 0 0-.886 4.7c-.157 1.57.072 4.886 0 5.536a8.712 8.712 0 0 0 0 3c.274.628 1.57 2.292 1.69 2.817s-.048.485 0 .792.085.364.758.3a5.067 5.067 0 0 1 2.131.208 16.358 16.358 0 0 1 2.352.769c.149.141-.707 0-.873.09a5.244 5.244 0 0 1-2.334.792c-.9-.058-1.035-.948-1.167-.933s0 .589 0 .589a1.319 1.319 0 0 1 .092.475 10.325 10.325 0 0 0 .072 2.427 30.477 30.477 0 0 0 .621 3.187 17.654 17.654 0 0 0 .83 3c.347.834.876 1.61 1.134 2.159a24.242 24.242 0 0 0 1.545 3.542 22.007 22.007 0 0 0 1.838 2.644c.294.373 1.428 1.6 1.852 2.212s1.557 2.992 1.557 2.992Z" fill="#9d9d9d" stroke="#4a4a4a" stroke-width=".3"/><path data-name="Path 5732" d="M78.12 14.317s1.912-2.952 2.076-2.452.347.783.522 1.253.642.734 1.582.542 1.278-1.135 3.01-1.218a11.592 11.592 0 0 1 3.875.677c1 .232 2.333-.667 3.529-1.7s2.193-2.19 4.427-2.094 5.887 3.868 5.455 8.112 3.013 4.657 3.666 5.953.43 3.315.5 4.1 1.723 4.223 2.5 4.223.08-3 .742-3.968 1.163-.608 2.257-2.182c.447-.641.935-1.12 1.3-1.609a4.7 4.7 0 0 1 1.368-1.49 2.642 2.642 0 0 1 2.1.173s-.474-5.021-.941-6.945a25.546 25.546 0 0 0-2.48-7.06 14.358 14.358 0 0 0-4.878-5.3c-2.193-1.414-7.951-5-17.032-1.935a20.64 20.64 0 0 0-9 5.755 30.553 30.553 0 0 0-4.578 7.165Z" fill="#717171" stroke="#4a4a4a" stroke-width=".3"/><g data-name="Mask Group 147" transform="translate(-1362 -1790.858)" clip-path="url(#a)"><g data-name="Group 2642"><path data-name="Path 5773" d="M1312.454 1768.711h295.183v196.591h-295.183Z" fill="#f8f8f8"/><path data-name="Path 5774" d="M1438.988 1921.088s.96-2.846 1.177-11.587-.31-23.376-.31-23.376l79.321 1.88a193.177 193.177 0 0 0-4.371 20.422c-1.07 8.27-1.217 12.48-1.217 12.48Z" fill="#727272" stroke="#4a4a4a" stroke-width=".3"/><path data-name="Path 5775" d="M1440.773 1826a2.393 2.393 0 0 1-.065-.675 2.759 2.759 0 0 1 .157-.691l5.45.691-2.251 2.168-2.919-.536Z" fill="#f8f8f8" stroke="#4a4a4a" stroke-width=".3"/><path data-name="Path 5776" d="m1312.454 1929.524 17.236-9.1 277.967.031-.443 44.851-294.76.02Z" fill="#969696" stroke="#4a4a4a" stroke-width=".3"/><path data-name="Path 5777" d="M1543.06 1920.248c.252.155 5.622 5.283 12.05 10.855 9.6 8.322 21.783 17.664 21.311 18.653-.844 1-39.246 2.126-81.1 3.124-48.137 1.144-99.888 1.48-99.888 1.48l10.739-32.984s136.258-1.513 136.888-1.128Z" fill="#7e7e7e" stroke="#4a4a4a" stroke-width=".3"/><path data-name="Path 5778" d="M1357.724 1941.902s8.013-1.637 16.01-3.193c6.779-1.318 13.536-2.621 15.487-2.389 1.879.225 10.318 4.024 19.818 7.946 12.009 4.958 25.59 10.349 28.447 11.647 2.483 1.127-4.624 3.341-11.541 5.35-7.338 2.131-14.818 4.176-14.818 4.176h-49.458Z" fill="#cbcbcb" stroke="#4a4a4a" stroke-width=".3"/><path data-name="Path 5779" d="M1416.541 1949.105c.19.553-17.251 4.792-18.042 4.792s-15.236-6.728-15.176-7.3 16.255-3.826 17.47-3.731 15.559 5.686 15.748 6.239Z" fill="#d5d5d5" stroke="#4a4a4a" stroke-width=".3"/><path data-name="Path 5780" d="M1548.807 1927.737s3.109 2.956 8.849 8.18 14.279 12.433 14.279 12.433-14.687-.362-20.134-.488-7.066 2.387-8.863 2.341-2.356-1.239-7.442-1.213c-2.3.011-7.274.628-12.031.9-5.69.325-10.788.576-10.788.576l-10.438-20.688Z" fill="#f8f8f8" stroke="#4a4a4a" stroke-width=".3"/><path data-name="Path 5781" d="m1474.662 1923.147 2.087 13.368s70.294-.321 71.379-.607-12.44-13.375-12.44-13.375-10.1.688-25.366.919-35.66-.305-35.66-.305Z" fill="#efefef" stroke="#4a4a4a" stroke-width=".3"/><path data-name="Path 5782" d="M1421.175 1925.324s19.729-1.3 22.315-1.465 3.589.626 3.589.626l-10.885 12.519s-.79-.631-3.875-.678-26.809.57-26.809.57Z" fill="#f8f8f8" stroke="#4a4a4a" stroke-width=".3"/><path data-name="Path 5783" d="M1405.713 1937.717c-.3-.074-.6-.677-.231-.8s8.117-.265 15.234-.412c4.024-.083 8.207-.153 9.775-.239a13.743 13.743 0 0 1 5.559.6c.264.094.022.124.377.14a13.523 13.523 0 0 1 5.677-.375c3.626.389 7.078 1.286 12.283 2.208a113.707 113.707 0 0 0 12.924 1.29 1.339 1.339 0 0 0 1.36-.856c.357-.8 6.085-12.956 6.085-12.956a3.652 3.652 0 0 1 .26 1.7c-.166.6-1.015 2.383-2.359 5.242-1.633 3.474-3.616 7.351-3.742 7.495-.229.258-.46.44-1.805.4s-2.557-.136-9.194-.781-17.25-1.937-21.336-2.331a57.2 57.2 0 0 0-7.1-.621c-3.932-.083-5.711.088-10.2.145s-4.4-.04-7.79 0-5.475.224-5.777.151Z" fill="#b2b2b2" stroke="#4a4a4a" stroke-width=".3"/><path data-name="Path 5784" d="M1436.19 1936.992c-.251.354 2.288-.746 5.914-.358s7.077 1.286 12.283 2.208a113.686 113.686 0 0 0 12.925 1.29 1.338 1.338 0 0 0 1.36-.856c.358-.8 6.085-12.956 6.085-12.956s-17.789 2.427-29.09 5.527c-7.148 1.963-9.225 4.79-9.477 5.145Z" fill="#dbdbdb" stroke="#4a4a4a" stroke-width=".3"/><path data-name="Path 5785" d="M1447.078 1924.409a8 8 0 0 1 3.748-1.6 19.888 19.888 0 0 1 6.466.215c1.924.291 4.741 1.279 9.223 2.095s8.258.912 8.26 1.205-7.24 12.026-7.876 12.9a1.414 1.414 0 0 1-1.706.638c-.475-.1-10.65-3.977-17.719-5.445a13.013 13.013 0 0 0-11.264 2.5Z" fill="#f0f0f0" stroke="#4a4a4a" stroke-width=".3"/><path data-name="Path 5786" d="M1513.346 1910.444s-.214 5-.59 7.32a18.174 18.174 0 0 0-.345 2.7l-27.271.927-.753-5.9Z" fill="#d5d5d5" stroke="#4a4a4a" stroke-width=".3"/><path data-name="Path 5787" d="M1446.716 1843.197a11.494 11.494 0 0 1-2.63 1.833c-2.157 1.259-5.085 2.831-5.992 3.2s-2.039.8-2.261.9-.379-.116-.678 0-.236.331-.515.471a8.378 8.378 0 0 0-2.312 1.449c-.7.744-1.165 2.358-2.64 5.483s-2.5 5.279-3.266 7.015a30.853 30.853 0 0 0-1.464 3.934c-.205.749-.01 1.354-.258 1.762s-1.687 1.454-2.179 2.459-1.341 4.67-1.655 5.621a9.009 9.009 0 0 1-1.246 2.084c-.321.548.006 1.29-.236 2.541a5.8 5.8 0 0 1-.73 2.461c-.568 1.006-1.1.907-1.543 1.563s-.874 2.375-2.1 4.607-1.647 2.257-2.592 4.206-.641 2.862-1.186 3.59-1.369 1-2.184 1.861a3.1 3.1 0 0 0-.938 1.621c-.269.669 0 .8-.19 1.355s-1.03 1.355-1.135 1.916a4.062 4.062 0 0 1-.43 1.885c-.5.958-1.447 2.782-2.633 5.012s-1.761 2.966-2.113 3.911-.029 1.051-.2 1.5-1.6 2.394-1.756 2.933.373.747-.215 1.7a10.6 10.6 0 0 1-2.139 2.106s1.483-.589 3.521-1.476a30.739 30.739 0 0 1 6.5-2.327 9.5 9.5 0 0 1 7.6 2.327c1.191.856 3.338 4.73 3.338 4.73s4.712-2.97 5.315-3.834 1.561-3.558 2.45-5.519.839-2.074 1.109-2.322.966-.211 1.6-.559.681-.658.944-.829.695.2 1.165-.239a5.178 5.178 0 0 0 1.447-2.66c.587-1.795.379-1.6.9-4.521s.6-6.441 1.2-7.163 4.128-5.848 4.494-6.231.994-.744 1.427-1.258a13.74 13.74 0 0 0 1.486-2.917 2.329 2.329 0 0 0 0-1.233s.777.269 1.717 2.278 1.43 4.189 2.254 5.742 3.237 4.653 3.095 5.165-.565 11.1-.435 11.777a2.335 2.335 0 0 1 0 1.41c-.159.482-1.785 4.512-1.624 5.352s2.014.474 3.979.6 25.467.906 25.467.906l-25.3-74.582Z" fill="#eaeaea" stroke="#4a4a4a" stroke-width=".3"/><path data-name="Path 5788" d="m1479.179 1827.002.711 1.823.151.4a33.632 33.632 0 0 1 1.335 3.175 63.86 63.86 0 0 1 1.158 4.316l-4.183 14.548-9.525 4.855-9.4-5.25Z" fill="#969696" stroke="#4a4a4a" stroke-width=".3"/><path data-name="Path 5789" d="M1480.136 1829.394a1.057 1.057 0 0 1 1.159.375 20.8 20.8 0 0 1 2.16 3.62c.717 1.568 1.637 2.3 2.519 2.3a30.238 30.238 0 0 1 6.011 0 39.552 39.552 0 0 1 6.484 1.467c2.131.523 2.357.243 4.851.935a24.453 24.453 0 0 1 5.123 1.836c2.873 1.254 5.585 2.836 7.78 3.745a23.456 23.456 0 0 1 5.614 3.6c1.167 1 2.279 3.354 2.863 5.309s.881 3.733.844 8.574a96.448 96.448 0 0 1-.88 10.53c-.047.713.392 1.181.264 1.6s-1.3 6.482-1.591 8.139-.448 7.11-1.717 12.964a39.776 39.776 0 0 1-3.357 10.45c-1.441 3.171-1.869 4.839-3.349 7.569s-3.565 5.579-4.919 7.862-1.67 3.019-2.9 3.744-4.4 2.625-6.108 3.389-3.4-.042-5.014-.707-1.932-2.087-3.383-3.616-2.584-1.823-5.12-3.8a40.54 40.54 0 0 1-5.021-4.114c-4.3-3.84-11.621-10.579-11.934-11.021a5.406 5.406 0 0 1-.468-1.685s-.388-.015-1.067-.8-.924-1.463-1.648-2.332-.717-.661-1.189-1.266-.383-.845-1.172-1.362a32.618 32.618 0 0 1-2.674-2.373c-.521-.451 1.565.155 1.565.155a2.4 2.4 0 0 1-.591-2.266 19.184 19.184 0 0 1 1.5-4.247l-2.046-36.625a7.066 7.066 0 0 0 2.448 1.511c1.477.523 3.828.882 5.155.159a55.3 55.3 0 0 0 5.46-4.4c1.412-1.175 3.427-2.81 4.031-4.386s2.5-6.7 2.406-7.923a64.741 64.741 0 0 0-2.089-6.91Z" fill="#eaeaea" stroke="#4a4a4a" stroke-width=".3"/><path data-name="Path 5790" d="M1466.655 1854.68a4.561 4.561 0 0 1 1.492 0c.119.07.879 2.032 1.077 2.33s3.391 4.847 3.453 4.992.224 1.731.375 2.649.48 3.01 1.162 7.034 1.121 7.064 1.566 9.067 10.228 39.258 10.355 39.7.285.93.285.93-12.365-.014-13-.028-2.433-3.7-2.725-4.4-.743-2.8-.84-2.986-.591-.534-.626-.461.232.987.445 2.6a37.527 37.527 0 0 1 .332 3.836 14.275 14.275 0 0 1-1.41 1.329c-.977.878-2.379 2.108-2.5 2.188a14.449 14.449 0 0 1-3.22-2.428 26.939 26.939 0 0 1-.226-2.834c-.073-1.339-.217-5.646-.185-6.6s.1-3.142.2-9.172.066-9.9.19-14.949 1.866-28.8 2.3-29.84a15.538 15.538 0 0 1 1.5-2.957Z" fill="#31A9FD"/><path data-name="Path 5791" d="M1480.136 1829.394a1.057 1.057 0 0 1 1.158.375 20.752 20.752 0 0 1 2.161 3.62c.716 1.568 1.544 2.337 2.425 2.337a11.268 11.268 0 0 1 1.123 5.83c-.244 2.827-.437 4.515-3.066 9.083s-7.4 11.564-8.813 13.994c-.555.812-1.058-.439-1.91-1.877a29.369 29.369 0 0 0-1.737-2.5 30.985 30.985 0 0 1-1.966-2.919c-.832-1.44-1.373-2.785-1.449-2.777a4.735 4.735 0 0 1-1.276 0c-.232-.1-1.71 3.1-1.82 3s-1.929-.6-2.241-6.2a7.053 7.053 0 0 0 2.447 1.511c1.477.523 3.829.882 5.156.159a55.421 55.421 0 0 0 5.461-4.4 19.717 19.717 0 0 0 4.03-4.386 56.652 56.652 0 0 0 2.406-7.923c.292-1.386-2.089-6.927-2.089-6.927Z" fill="#f0f0f0" stroke="#4a4a4a" stroke-width=".3"/><path data-name="Path 5792" d="M1421.175 1925.614s1.905-.272 2.023-.232a.83.83 0 0 1 .352.616.718.718 0 0 1-.17.648c-.107.066-2.028.4-2.028.4Z" fill="#f8f8f8" stroke="#4a4a4a" stroke-width=".3"/><path data-name="Path 5793" d="M1403.576 1936.912a8.777 8.777 0 0 0 2.175-.659c1.223-.536.987-1 2.59-1.3s2.587.328 4.117.189a5.643 5.643 0 0 0 2.22-.551l-9.152-8.743-4.445 4.652Z" fill="#8b8b8b" stroke="#4a4a4a" stroke-width=".3"/><path data-name="Path 5794" d="M1408.001 1923.797s-9.212-.223-7.175-1.108a30.568 30.568 0 0 1 6.5-2.326 9.49 9.49 0 0 1 7.6 2.326c1.191.857 3.337 4.731 3.337 4.731Z" fill="#f0f0f0" stroke="#4a4a4a" stroke-width=".3"/><path data-name="Path 5795" d="M1466.335 1846.849s-.822.584-2.48 2.028a22.276 22.276 0 0 1-4.474 2.86c-1.027.55-2.31-1.142-4.3-2.041s-2.521-1.459-3.594-1.4a3.642 3.642 0 0 0-2.538 1.635c-.418.671-.045 2.246 0 2.485s-.923-.4-1.826 0a3.376 3.376 0 0 0-1.784 1.6 2.145 2.145 0 0 0 .047 1.747 5.849 5.849 0 0 0 .485.847 2.4 2.4 0 0 0-1.559.527 2.885 2.885 0 0 0-1.122 1.808 2.471 2.471 0 0 0 .247 1.394 9.43 9.43 0 0 0 .989 1.243 2.851 2.851 0 0 0-1.55.651 2.218 2.218 0 0 0-.61 1.976 3.839 3.839 0 0 0 1.338 2.076c.616.547 1.32.805 1.685 1.148s.6.589.857.787.451.324.486.476a5.676 5.676 0 0 0 .474 1.149 28.544 28.544 0 0 0 3.642 5.03c2.055 2.225 2.3 2.105 4.476 3.739s3.547 2.165 4.236 2.789a17.616 17.616 0 0 1 3.5 4.058 28.087 28.087 0 0 1 2.862 5.715c.612 1.555 1.305 3.467 1.305 3.467l11.633-7.166a106.371 106.371 0 0 0-5.831-10.783c-2.917-4.508-4.735-7.158-5.218-8.368a7.649 7.649 0 0 1-.328-3.453 9.056 9.056 0 0 0-.135-2.893 8.241 8.241 0 0 0-1.177-3.245c-.684-.968-1.31-1.4-1.565-1.914a13.149 13.149 0 0 1-.764-2.919c-.034-.589-.1-.923-.115-1.218s-.314-.6-.168-1.122a5.237 5.237 0 0 1 1.7-3.158c1.444-1.286 1.176-1.555 1.176-1.555Z" fill="#9d9d9d" stroke="#4a4a4a" stroke-width=".3"/><path data-name="Path 5796" d="M1458.693 1851.911s.75.139 2.667-1.146 3.5-2.832 5-4a30.675 30.675 0 0 0 4.33-3.345c2.187-2.1 3.25-3.143 4.43-5.848s1.445-7.1 1.928-7.393.518-.473 1.494-1.4 2.147-4.025 2.489-7.374a13.623 13.623 0 0 0-.3-3.491 11.233 11.233 0 0 0-.925-3.585c-.4-.732-.61-.758-.749-.839-.066-.036-.006.122-.115-1.015s-.76-9.86-4.442-14.784-9.625-6.318-12.254-6.588a21.929 21.929 0 0 0-12.037 2.635 20.268 20.268 0 0 0-7.943 7.526 30.245 30.245 0 0 0-3.187 6.512 17.75 17.75 0 0 0-.886 4.7c-.157 1.57.072 4.886 0 5.536a8.712 8.712 0 0 0 0 3c.274.628 1.57 2.292 1.69 2.817s-.048.485 0 .792.085.364.758.3a5.067 5.067 0 0 1 2.131.208 16.358 16.358 0 0 1 2.352.769c.149.141-.707 0-.873.09a5.244 5.244 0 0 1-2.334.792c-.9-.058-1.035-.948-1.167-.933s0 .589 0 .589a1.319 1.319 0 0 1 .092.475 10.325 10.325 0 0 0 .072 2.427 30.477 30.477 0 0 0 .621 3.187 17.654 17.654 0 0 0 .83 3c.347.834.876 1.61 1.134 2.159a24.242 24.242 0 0 0 1.545 3.542 22.007 22.007 0 0 0 1.838 2.644c.294.373 1.428 1.6 1.852 2.212s1.557 2.992 1.557 2.992Z" fill="#9d9d9d" stroke="#4a4a4a" stroke-width=".3"/><path data-name="Path 5797" d="M1440.705 1824.127a10.238 10.238 0 0 1 2.8.362c1.229.391 1.978.819 2.28 1.533a2.324 2.324 0 0 1-.506 2.1c-.411.631-1.071.925-1.366.817s.1-.333-.311-.443-.861.18-1.186 0-.179-.442-.574-.842-.747-.346-.937-.725a1.62 1.62 0 0 1-.125-1.087 3.222 3.222 0 0 0 .408.6 1.026 1.026 0 0 0 .654.322 2.817 2.817 0 0 0 1.31-.239c.6-.209.761-.39 1.155-.546a6.392 6.392 0 0 0 .848-.047c.073-.042-.458-.217-1.02-.406s-1.216-.367-1.216-.367c-.022-.423-2.214-1.032-2.214-1.032Z" fill="#969696" stroke="#4a4a4a" stroke-width=".3"/><path data-name="Path 5798" d="M1466.42 1884.001s.006.278-1.095.918a3.76 3.76 0 0 1-1.6.544 2.224 2.224 0 0 1-.866-.131s-.189-.306-.314-.5c-.184-.283-.407-.556-.407-.556l-.307-.412a1.889 1.889 0 0 0-.481 1.371 3.507 3.507 0 0 0 .719 2.554 1.128 1.128 0 0 0 1.564.25c.091-.152 1.089.884 1.923 1.224a5.627 5.627 0 0 0 1.564.451 1.038 1.038 0 0 0 1-.189l1.808-.877Z" fill="#3b3b3b" stroke="#4a4a4a" stroke-width=".3"/><path data-name="Path 5799" d="M1472.444 1879.128a16 16 0 0 0 .921-1.579c.062-.243-.064-.207-.129-.365a4.538 4.538 0 0 0-.349-.557 1.522 1.522 0 0 1 .839.3c.228.258 1.75 2.658 2.182 3.424a2.148 2.148 0 0 1 .394 1.3 3.929 3.929 0 0 1-.231 1.1l-.689.513Z" fill="#3b3b3b" stroke="#4a4a4a" stroke-width=".3"/><path data-name="Path 5800" d="M1466.481 1883.604a13.987 13.987 0 0 1-1.173 1.072c-.568.445-1.054.629-1.1.712s.172.363.258.368a9.907 9.907 0 0 0 1.441-.651 3.867 3.867 0 0 0 .813-.538Z" fill="#ddd" stroke="#4a4a4a" stroke-width=".3"/><path data-name="Path 5801" d="M1469.322 1888.637a2.889 2.889 0 0 1-.754.506c-.517.258-1.2.438-1.311.522s.208.208.334.23 1.238-.475 2.018-.752 1.1-.367 1.1-.367Z" fill="#ddd" stroke="#4a4a4a" stroke-width=".3"/><path data-name="Path 5802" d="M1471.738 1878.785a1.435 1.435 0 0 0 .865-.4c.337-.366.48-.68.579-.73a.188.188 0 0 1 .24.1 1.676 1.676 0 0 1-.17.726 2.921 2.921 0 0 1-.512.743Z" fill="#ddd" stroke="#4a4a4a" stroke-width=".3"/><path data-name="Path 5803" d="M1475.75 1882.86a1.388 1.388 0 0 0 .349-.464 5.162 5.162 0 0 0 .151-.666c.034-.013.159.229.158.289a5.5 5.5 0 0 1-.229.933 2.162 2.162 0 0 1-.428.731Z" fill="#ddd" stroke="#4a4a4a" stroke-width=".3"/><path data-name="Path 5804" d="M1440.122 1805.175s1.912-2.952 2.076-2.452.347.783.522 1.253.642.734 1.582.542 1.278-1.135 3.01-1.218a11.592 11.592 0 0 1 3.875.677c1 .232 2.333-.667 3.529-1.7s2.193-2.19 4.427-2.094 5.887 3.868 5.455 8.112 3.013 4.657 3.666 5.953.43 3.315.5 4.1 1.723 4.223 2.5 4.223.08-3 .742-3.968 1.163-.608 2.257-2.182c.447-.641.935-1.12 1.3-1.609a4.7 4.7 0 0 1 1.368-1.49 2.642 2.642 0 0 1 2.1.173s-.474-5.021-.941-6.945a25.546 25.546 0 0 0-2.48-7.06 14.358 14.358 0 0 0-4.878-5.3c-2.193-1.414-7.951-5-17.032-1.935a20.64 20.64 0 0 0-9 5.755 30.553 30.553 0 0 0-4.578 7.165Z" fill="#717171" stroke="#4a4a4a" stroke-width=".3"/><path data-name="Path 5805" d="M1450.096 1836.895c-.425.526-.873.681-.989.326s.4-.592.68-.753 2.04-.7 2.04-.7a6.456 6.456 0 0 0-1.731 1.127Z" fill="#4a494a" stroke="#4a4a4a" stroke-width=".3" opacity=".816"/><path data-name="Path 5806" d="M1448.744 1837.849s-.375.333-1.439.126a5.663 5.663 0 0 1-2.226-1.309s-.906-.136-1.165-.731a1.191 1.191 0 0 1 0-1.167c.118-.16.331-.262.422-.366a2.559 2.559 0 0 0 .4-.737 16.762 16.762 0 0 0 .531-2.16c.044-.458 1.272-3.657 1.1-4.624s.533.215.331 1.813c-.081.635-.906 3.839-1.044 4.529a5.838 5.838 0 0 0-.327 2.276c.1 1.138.669 1.611 1.643 2.161a2.055 2.055 0 0 0 1.774.189Z" fill="#acacac" stroke="#4a4a4a" stroke-width=".3"/><path data-name="Path 5807" d="M1452.828 1825.609a2.892 2.892 0 0 1 1.575-1.409c1.085-.353 1.426.058 2.852 0s2.478-.124 2.478-.124.089-.12-.851.41-.753 1.165-2.533 1.6a2.268 2.268 0 0 1-2.252-.477 5.306 5.306 0 0 0-1.269 0Z" fill="#e8e8e8" stroke="#4a4a4a" stroke-width=".3"/><g data-name="Mask Group 145" transform="translate(1452.828 1823.958)" clip-path="url(#b)"><path data-name="Path 5808" d="M2.334-.975A1.522 1.522 0 0 1 4.025.332a1.522 1.522 0 0 1-1.013 1.882A1.522 1.522 0 0 1 1.32.907 1.522 1.522 0 0 1 2.334-.975Z" fill="#5c5c5c"/></g><path data-name="Path 5810" d="M1441.791 1823.722c-.3.046-.346-.124-1.137-.531a8.332 8.332 0 0 1-1.684-1.122 2.642 2.642 0 0 1-.85-1.213c-.2-.61-.233-.627-.2-.939s.284-.122.346 0a1.392 1.392 0 0 0 .379.881c.381.326.633.295 1.176.688s.555.584 1 .882a5.477 5.477 0 0 1 1.081.824c.253.29.185.485-.111.53Z" fill="#969696" stroke="#4a4a4a" stroke-width=".3"/><path data-name="Path 5811" d="M1451.105 1823.221c-1.219.188-1.889-.3-1.38-1.061s3.022-1.5 3.781-1.883a17.124 17.124 0 0 1 4.443-1.417 7.287 7.287 0 0 1 3.386.468c.667.26-3.205.193-5.087.887s-1.294 1.161-2.439 1.881a5.588 5.588 0 0 1-2.704 1.125Z" fill="#969696" stroke="#4a4a4a" stroke-width=".3"/><path data-name="Path 5812" d="M1475.122 1825.352c-.053-.325.813-.345 1.015-.893.223-.6.417-1.154.334-1.268-.149-.208.387.8 1.162.374s.983-.8 1-1.3a1.026 1.026 0 0 0-.492-.8s1.123.547.756 1.3a2.35 2.35 0 0 1-1.112 1.236c-.6.4-.81.03-1.175.342s.113.972-.26 1.246-1.11.487-1.228-.237Z" fill="#4a4a4a" stroke="#4a4a4a" stroke-width=".3"/><path data-name="Path 5813" d="M1440.731 1825.02c-.144.048-.33.006-.513.1s-.182.184-.392.324-.556.333-.485.222.755-.562.716-.708c-.021-.072.2-.035.453-.04.185 0 .431-.025.431-.025a.508.508 0 0 1-.21.127Z" fill="#f8f8f8" stroke="#4a4a4a" stroke-width=".3"/><g data-name="Ellipse 1951" transform="rotate(12.04 -8190.302 7921.869)" fill="#ddd" stroke="#4a4a4a" stroke-width=".3"><ellipse cx="4.791" cy="5.137" rx="4.791" ry="5.137" stroke="none"/><ellipse cx="4.791" cy="5.137" rx="4.641" ry="4.987" fill="none"/></g><g data-name="Ellipse 1952" transform="rotate(12.04 -8193.71 7924.373)" fill="#fff" stroke="#4a4a4a" stroke-width=".3"><ellipse cx="4.248" cy="4.544" rx="4.248" ry="4.544" stroke="none"/><ellipse cx="4.248" cy="4.544" rx="4.098" ry="4.394" fill="none"/></g><g data-name="Ellipse 1953" transform="translate(1470.813 1883.603)" fill="#f8f8f8" stroke="#4a4a4a" stroke-width=".3"><circle cx=".296" cy=".296" r=".296" stroke="none"/><circle cx=".296" cy=".296" r=".146" fill="none"/></g><g data-name="Polygon 4" fill="#f8f8f8"><path d="m1474.552 1885.397-3.334-1.25.117-.276Z"/><path d="m1474.552 1885.397-3.333-1.254.116-.273 3.217 1.527Z" fill="#4a4a4a"/></g><g data-name="Group 2641" fill="none" stroke="#4a4a4a" stroke-width=".3"><path data-name="Line 1320" d="m1468.69 1882.961-.889-.395"/><path data-name="Line 1321" d="m1469.48 1881.675-.593-.79"/><path data-name="Line 1322" d="M1470.665 1880.985v-.889"/><path data-name="Line 1323" d="m1472.049 1881.182.395-.889"/><path data-name="Line 1324" d="m1473.234 1881.973.593-.494"/><path data-name="Line 1325" d="m1473.629 1883.455.988-.198"/><path data-name="Line 1326" d="m1473.53 1884.838.889.395"/><path data-name="Line 1327" d="m1472.641 1886.122.593.692"/><path data-name="Line 1328" d="M1471.456 1886.716v.889"/><path data-name="Line 1329" d="m1470.073 1886.517-.395.988"/><path data-name="Line 1330" d="m1469.086 1885.825-.692.494"/><path data-name="Line 1331" d="m1468.492 1884.344-.889.099"/><g data-name="Rectangle 4384"><path stroke="none" d="m1472.395 1882.345.605-.508.381.454-.605.508z"/><path d="m1472.606 1882.363.376-.314.188.224-.375.315z"/></g></g><g data-name="Ellipse 1954" transform="rotate(10.02 -10015.674 9323.763)" fill="#f8f8f8" stroke="#4a4a4a" stroke-width=".3"><circle cx=".148" cy=".148" r=".148" stroke="none"/><circle cx=".148" cy=".148" r=".002" fill="none"/></g><g data-name="Ellipse 1955" transform="rotate(10.02 -10015.064 9323.244)" fill="#f8f8f8" stroke="#4a4a4a" stroke-width=".3"><circle cx=".148" cy=".148" r=".148" stroke="none"/><circle cx=".148" cy=".148" r=".002" fill="none"/></g><g data-name="Ellipse 1956" transform="rotate(10.02 -10014.448 9322.73)" fill="#f8f8f8" stroke="#4a4a4a" stroke-width=".3"><circle cx=".148" cy=".148" r=".148" stroke="none"/><circle cx=".148" cy=".148" r=".002" fill="none"/></g><g data-name="Ellipse 1957" transform="rotate(10.02 -10013.838 9322.217)" fill="#f8f8f8" stroke="#4a4a4a" stroke-width=".3"><circle cx=".148" cy=".148" r=".148" stroke="none"/><circle cx=".148" cy=".148" r=".002" fill="none"/></g><g data-name="Ellipse 1958" transform="rotate(10.02 -10013.222 9321.703)" fill="#f8f8f8" stroke="#4a4a4a" stroke-width=".3"><circle cx=".148" cy=".148" r=".148" stroke="none"/><circle cx=".148" cy=".148" r=".002" fill="none"/></g><g data-name="Ellipse 1959" transform="rotate(10.02 -10012.612 9321.19)" fill="#f8f8f8" stroke="#4a4a4a" stroke-width=".3"><circle cx=".148" cy=".148" r=".148" stroke="none"/><circle cx=".148" cy=".148" r=".002" fill="none"/></g><g data-name="Ellipse 1960" transform="rotate(10.02 -10011.99 9320.676)" fill="#f8f8f8" stroke="#4a4a4a" stroke-width=".3"><circle cx=".148" cy=".148" r=".148" stroke="none"/><circle cx=".148" cy=".148" r=".002" fill="none"/></g><g data-name="Ellipse 1961" transform="rotate(10.02 -10011.386 9320.163)" fill="#f8f8f8" stroke="#4a4a4a" stroke-width=".3"><circle cx=".148" cy=".148" r=".148" stroke="none"/><circle cx=".148" cy=".148" r=".002" fill="none"/></g><g data-name="Ellipse 1962" transform="rotate(10.02 -10010.77 9319.643)" fill="#f8f8f8" stroke="#4a4a4a" stroke-width=".3"><circle cx=".148" cy=".148" r=".148" stroke="none"/><circle cx=".148" cy=".148" r=".002" fill="none"/></g><g data-name="Ellipse 1963" transform="rotate(10.02 -10020.347 9327.684)" fill="#f8f8f8" stroke="#4a4a4a" stroke-width=".3"><circle cx=".148" cy=".148" r=".148" stroke="none"/><circle cx=".148" cy=".148" r=".002" fill="none"/></g><g data-name="Ellipse 1964" transform="rotate(10.02 -10019.737 9327.17)" fill="#f8f8f8" stroke="#4a4a4a" stroke-width=".3"><circle cx=".148" cy=".148" r=".148" stroke="none"/><circle cx=".148" cy=".148" r=".002" fill="none"/></g><g data-name="Ellipse 1965" transform="rotate(10.02 -10019.127 9326.657)" fill="#f8f8f8" stroke="#4a4a4a" stroke-width=".3"><circle cx=".148" cy=".148" r=".148" stroke="none"/><circle cx=".148" cy=".148" r=".002" fill="none"/></g><g data-name="Ellipse 1966" transform="rotate(10.02 -10018.511 9326.144)" fill="#f8f8f8" stroke="#4a4a4a" stroke-width=".3"><circle cx=".148" cy=".148" r=".148" stroke="none"/><circle cx=".148" cy=".148" r=".002" fill="none"/></g><g data-name="Ellipse 1967" transform="rotate(10.02 -10017.901 9325.63)" fill="#f8f8f8" stroke="#4a4a4a" stroke-width=".3"><circle cx=".148" cy=".148" r=".148" stroke="none"/><circle cx=".148" cy=".148" r=".002" fill="none"/></g><g data-name="Ellipse 1968" transform="rotate(10.02 -10017.286 9325.11)" fill="#f8f8f8" stroke="#4a4a4a" stroke-width=".3"><circle cx=".148" cy=".148" r=".148" stroke="none"/><circle cx=".148" cy=".148" r=".002" fill="none"/></g><g data-name="Ellipse 1969" transform="rotate(10.02 -10016.675 9324.598)" fill="#f8f8f8" stroke="#4a4a4a" stroke-width=".3"><circle cx=".148" cy=".148" r=".148" stroke="none"/><circle cx=".148" cy=".148" r=".002" fill="none"/></g><g data-name="Polygon 5" fill="#f8f8f8"><path d="m1469.122 1884.7 1.829-.903.112.278Z"/><path d="m1469.121 1884.7 1.83-.9.112.275-1.942.625Z" fill="#4a4a4a"/></g><path data-name="Path 5814" d="M1468.346 1879.299a2.049 2.049 0 0 0-.608.318 1.324 1.324 0 0 0-.323.464l.239.271a1.386 1.386 0 0 0 .545-.271 2.06 2.06 0 0 0 .4-.509Z" fill="#ddd" stroke="#4a4a4a" stroke-width=".3"/><path data-name="Path 5815" d="M1458.565 1840.771c-.433-.289-.844-.065-2.591 0s-3.188-.524-3.85-.336a7.469 7.469 0 0 1-2.56.658 14.609 14.609 0 0 0-2.33 0c-.381.139-.494.289-.293.582s.423.129 1.018.384a36.558 36.558 0 0 0 9.271.523c.475-.059.96-.887 1.335-1.067.677-.333.395-.587 0-.744Z" fill="#a3a3a3" stroke="#4a4a4a" stroke-width=".3" opacity=".885"/><path data-name="Path 5816" d="M1448.123 1842.511a1.537 1.537 0 0 0 .229 1.143 11.542 11.542 0 0 0 1.106 1.616 4.312 4.312 0 0 1-.233-1.223 8.658 8.658 0 0 1 0-1.151Z" fill="#959595" stroke="#4a4a4a" stroke-width=".3"/><path data-name="Path 5817" d="M1458.892 1840.767c-.432-.289-1.132.064-2.879.128s-3.229-.253-3.89-.064a7.548 7.548 0 0 1-2.56.656c-1.256.026-2.143-.274-2.524-.134s-.4.217-.2.509.518.336 1.114.591a10.435 10.435 0 0 0 1.267.434s-.223 2.207.48 2.683a3.833 3.833 0 0 0 2.81.413 5.274 5.274 0 0 0 3.008-1.17c1.148-.777 1.351-1.689 2.222-2.761s1.585-.996 1.152-1.285Z" fill="#7e7e7e" stroke="#4a4a4a" stroke-width=".3"/><path data-name="Path 5818" d="M1457.497 1841.377c-.069 0-.957.405-2.083.758a8.918 8.918 0 0 1-2.072.456 7.84 7.84 0 0 0-1.15.054 5.171 5.171 0 0 1-1.831.3 5.272 5.272 0 0 1-1.153-.063 4.416 4.416 0 0 0 0 1.367c.139.268.742.668 1.834.623a4.826 4.826 0 0 0 2.57-.623 7.329 7.329 0 0 0 2.178-1.6c1.086-.895 1.776-1.267 1.707-1.272Z" fill="#a3a3a3" stroke="#4a4a4a" stroke-width=".3"/><path data-name="Path 5819" d="M1492.59 1923.08c-1.45-1.527-2.584-1.824-5.12-3.8a40.3 40.3 0 0 1-5.021-4.114c-4.3-3.84-11.621-10.58-11.934-11.022a5.4 5.4 0 0 1-.468-1.684s-.388-.016-1.067-.8-.924-1.463-1.648-2.331-.717-.661-1.189-1.267-.383-.843-1.172-1.36a32.347 32.347 0 0 1-2.674-2.373c-.521-.453 1.565.153 1.565.153a2.4 2.4 0 0 1-.591-2.266 11.2 11.2 0 0 1 1.261-3.625c.092-.019.284.176.329.252s.619 1.735 1.047 2.6c.662 1.335 1.32 2.545 1.32 2.545s3.959-2.288 5.227-3.775a33.4 33.4 0 0 0 3.506-5.912c.556-1.208.938-3 .149-3.892s3.651 3.563 5.948 5.962 2.4 2.487 3.225 3.5a3.887 3.887 0 0 1 .815 1.986c.089.121.718-.081 1.112.2s.334.926.667.942a8.282 8.282 0 0 1 3.341 1.761c1.746 1.329 7.664 5.915 9.474 7.7a19.084 19.084 0 0 1 4.312 7.1c.86 2.572.6 3.112 1.529 4.46s3.978 7.575.556 9.814c-1.214.794-5.069 3.467-7.672 3.68-4.649.376-6.827-4.434-6.827-4.434Z" fill="#efefef" stroke="#4a4a4a" stroke-width=".3"/><path data-name="Path 5820" d="M1464.206 1894.549a2.864 2.864 0 0 1-.418-1.275 3.562 3.562 0 0 1 .138-1.82 15.653 15.653 0 0 1 .987-2.543 21.5 21.5 0 0 0 .94 2.383 53.579 53.579 0 0 0 1.375 2.679 6.7 6.7 0 0 1-1.421.492 6.435 6.435 0 0 1-1.601.084Z" fill="#f8f8f8" stroke="#4a4a4a" stroke-width=".3"/><path data-name="Path 5821" d="M1408.001 1924.095s-7.35.272-5.313-.613c1.984-.862 4.214-2.674 6.333-2.9s3.584 1.763 4.775 2.62a10.343 10.343 0 0 1 2.292 3.191Z" fill="#8b8b8b" stroke="#4a4a4a" stroke-width=".3"/><path data-name="Path 5822" d="M1390.348 1935.701c-.158.292-.267.42-.557.9s-.88 1.644-.979 1.75a5.235 5.235 0 0 0-.672.606c-.256.315-.22.592-.354.653a3.553 3.553 0 0 0-1.382 1.021c-.684.768-.131 1.075-.131 1.075a1.078 1.078 0 0 0 .464.827c.467.33.768.619 2.279.377a3.712 3.712 0 0 0 2.247-1.587c.3-.184.555-.335.555-.335a9.2 9.2 0 0 0 .336 1.922c.278.9.682 1.3.83 1.856a3.526 3.526 0 0 0 .729 2 1.9 1.9 0 0 0 2.049.172c.27-.138.863-.515 1-.573s.311.141.366.4a1.558 1.558 0 0 0 .659 1 2.488 2.488 0 0 0 1.921-.106c.868-.374 1.3-.875 1.856-2.368a7.783 7.783 0 0 0 .367-3.609c-.094-.5-.316-1.04-.306-1.192s.2-.615.237-.828-.069-.8.069-.728a1.7 1.7 0 0 0 1.391-.6 3.038 3.038 0 0 0 1.027-1.761 11.6 11.6 0 0 0 .313-2.687c-.03-.728-.282-2.2-.313-2.391s-.2-.447-.22-.6.05-.382.067-.777-.175-.6 0-.807 1.514-1.186 1.833-1.63 4.468 5.129 4.468 5.129a10.726 10.726 0 0 0 3.675 2.027 32.225 32.225 0 0 0 3.485.292c.137.074-.085.126 1.387-.19a6.052 6.052 0 0 0 3.044-1.627c.672-.642 1.78-1.574 1.165-3.005a2.858 2.858 0 0 0-2.8-1.389c-.2.083.12-.929-.726-1.768s-.867-.514-2.841-1.59a38.809 38.809 0 0 0-5.286-2.767 12.192 12.192 0 0 0-3.971-1.09 8.128 8.128 0 0 0-4.063-.5c-2.12.424-1.507.832-2.608 1.377a12.249 12.249 0 0 1-2.517 1 4.5 4.5 0 0 0-1.612.86c-.377.246-1.039.584-1.126 1.013a17.23 17.23 0 0 1-.491 2.561 4.655 4.655 0 0 1-.592 1.038 2.05 2.05 0 0 0-.767.674c-.21.366-.7.982-1.513 2.191a23.574 23.574 0 0 0-1.735 2.654 11.161 11.161 0 0 1-.257 1.13Z" fill="#9d9d9d" stroke="#4a4a4a" stroke-width=".3"/><path data-name="Path 5823" d="m1398.1 1929.273-2.446.438.231 1.886 2.831-.312a8.328 8.328 0 0 0-.23-1.107 4.1 4.1 0 0 0-.386-.905Z" fill="#6a6a6a" stroke="#4a4a4a" stroke-width=".3"/><path data-name="Path 5824" d="M1395.646 1929.702a1.323 1.323 0 0 1 .418.776 2.777 2.777 0 0 1-.185 1.138 48.927 48.927 0 0 1-4.935-.153 49.43 49.43 0 0 1 4.702-1.761Z" fill="#d8d8d8" stroke="#4a4a4a" stroke-width=".3"/><path data-name="Path 5825" d="M1420.582 1925.319s-1.854.177-5.449.791-9.048 1.641-9.048 1.641l.615 2.176 14.309-2.489s.56-.2.429-1.168-.856-.951-.856-.951Z" fill="#d8d8d8" stroke="#4a4a4a" stroke-width=".3"/><path data-name="Path 5826" d="M1411.679 1928.005a4.608 4.608 0 0 1 1.1-.243 19.878 19.878 0 0 0 3.137-.324c1.767-.322 3.5-.831 3.932-.957a1.467 1.467 0 0 1 .808-.1 1.363 1.363 0 0 1 0 .842c-.1.083-.2.164-2.074.541-.779.157-2.041.53-3.359.766a15.57 15.57 0 0 1-3.546.377c.04-.179-.148-.774.002-.902Z" fill="#f8f8f8" stroke="#4a4a4a" stroke-width=".3"/><path data-name="Path 5827" d="m1404.177 1930.433 2.585-.513a4.832 4.832 0 0 0-.059-1.211c-.117-.729-.367-1.252-.852-.812s-1.574 1.327-1.674 1.448-.02.277 0 .576a3.606 3.606 0 0 1 0 .512Z" fill="#6a6a6a" stroke="#4a4a4a" stroke-width=".3"/><path data-name="Path 5828" d="M1387.679 1939.602c.54-.3.713-.116.678.131a.671.671 0 0 1-.5.541c-.306.1-.554-.109-.952 0s-.473.282-.473.282a3.228 3.228 0 0 1 .753-.687c.08-.062.394-.213.494-.267Z" fill="#b9b9b9" stroke="#4a4a4a" stroke-width=".3"/><path data-name="Path 5829" d="M1393.258 1942.944a1.236 1.236 0 0 1 1.878-.233 2.95 2.95 0 0 1 .38 1.489c-.125.32-.634.522-1.2 1.031s-.622 1.046-.887.473a3.476 3.476 0 0 1-.271-1.333 2.824 2.824 0 0 1 .1-1.427Z" fill="#b9b9b9" stroke="#4a4a4a" stroke-width=".3"/><path data-name="Path 5830" d="M1398.173 1942.967a.882.882 0 0 1 1.208.583 3.211 3.211 0 0 1 .144 1.462c-.08.332-1.406 1.125-1.877 1.9s-.256-2.01-.261-2.385.127-1.36.786-1.56Z" fill="#b9b9b9" stroke="#4a4a4a" stroke-width=".3"/><path data-name="Path 5831" d="M1400.818 1934.638c.5-.463.862-.642 1.469-.286a2.34 2.34 0 0 1 .8 1.79c.031.467-.4.962-.99 1.507s-1.231.968-1.45.137a6.473 6.473 0 0 1-.311-1.721 1.92 1.92 0 0 1 .482-1.427Z" fill="#b9b9b9" stroke="#4a4a4a" stroke-width=".3"/><path data-name="Path 5832" d="M1416.011 1934.573a4.172 4.172 0 0 0 2.959.741 6.552 6.552 0 0 0 3.11-2.007c.673-.64 1.781-1.572 1.166-3a2.859 2.859 0 0 0-2.8-1.39c-.043.018-.879.144-1.988.309-1.527.1-3.116.518-3.74 1.309-1.096 1.383 1.224 4.002 1.293 4.038Z" fill="#b7b7b7" stroke="#4a4a4a" stroke-width=".3"/><path data-name="Path 5833" d="M1466.335 1846.849s-.822.584-2.479 2.028a22.291 22.291 0 0 1-4.474 2.86c-.4.212.875.586 2.206 1.681a28.445 28.445 0 0 1 2.92 3.4 13.151 13.151 0 0 1-.765-2.919c-.033-.589-.094-.923-.115-1.218s-.315-.6-.169-1.122a5.235 5.235 0 0 1 1.7-3.158c1.446-1.283 1.176-1.552 1.176-1.552Z" fill="#989898" stroke="#4a4a4a" stroke-width=".3"/><path data-name="Path 5834" d="M1454.894 1824.768c.025.217.281 0 .281 0s-.013.23.1.268a.313.313 0 0 0 .354-.118c.05-.116-.116-.079-.155-.223s.112-.225 0-.287-.115.051-.273.154-.331-.016-.307.206Z" fill="#f8f8f8" stroke="#4a4a4a" stroke-width=".3"/><path data-name="Path 5835" d="M1367.967 1942.06c.522.02 39.629 19.255 39.957 19.853s-3.647 1.292-4.372 1.227-32.6-16.211-32.683-16.521 1.729-.571 1.729-.571l-2.308-1.381a19.452 19.452 0 0 1-2.323.518 4.05 4.05 0 0 1-1.806-1.112c-.021-.25 1.714-.441 1.714-.441s-1.77-.914-1.766-1.119 1.336-.472 1.858-.453Z" fill="#7b7b7b" stroke="#4a4a4a" stroke-width=".3"/><path data-name="Path 5836" d="M1401.871 1963.522c-.136-.424-38.3-20.138-39.117-20.273a17.6 17.6 0 0 0-3.838.726s39.232 20.455 39.775 20.531 3.317-.562 3.18-.984Z" fill="#7b7b7b" stroke="#4a4a4a" stroke-width=".3"/><path data-name="Path 5837" d="M1359.643 1944.935s36.943 19.684 37.031 20-1.019.439-1.019.439h-3.635l-31.12-16.6Z" fill="#7b7b7b" stroke="#4a4a4a" stroke-width=".3"/><path data-name="Path 5838" d="m1389.413 1965.501-28.6-16.028.2 3.069 23.124 12.959Z" fill="#7b7b7b" stroke="#4a4a4a" stroke-width=".3"/><path data-name="Path 5839" d="m1364.414 1955.588 16.833 9.769h-5.911l-10.162-5.643Z" fill="#7b7b7b" stroke="#4a4a4a" stroke-width=".3"/><path data-name="Path 5840" d="m1373.278 1965.437-5.772-3.358.826 3.358Z" fill="#f8f8f8" stroke="#4a4a4a" stroke-width=".3"/><path data-name="Path 5841" d="M1312.454 1896.728s19.157 6.216 27.276 9.317c1.914.732 3.269 1.134 4.221 2.187a17.58 17.58 0 0 1 2.3 4.409c2.5 5.641 6.988 17.2 12.13 28.771a713.037 713.037 0 0 0 11.2 23.912h-13.9s-20.287-12.286-22.258-14.1c-.851-.784-5.108-8.519-9.421-17.2-5.644-11.358-11.579-23.145-11.579-23.145Z" fill="#dbdbdb" stroke="#4a4a4a" stroke-width=".3"/><path data-name="Path 5842" d="M1450.729 1833.1c-.346-.325 2.117-1.437 3.939 0s-.958 2.694-1.615 2.865-.995.159-.683-.216 1.837-.15 1.378-1.573-2.674-.747-3.019-1.076Z" fill="#969696" stroke="#4a4a4a" stroke-width=".3"/><path data-name="Path 5843" d="M1452.908 1826.533a4.17 4.17 0 0 0 3.137 1.482 5.747 5.747 0 0 0 3.644-1.76 6.234 6.234 0 0 1-3.486 1.142 6.337 6.337 0 0 1-3.295-.864Z" fill="#969696" stroke="#4a4a4a" stroke-width=".3"/><g data-name="Mask Group 146" transform="translate(1440.386 1824.891)" clip-path="url(#c)"><path data-name="Path 5844" d="M1.497-.938A1.375 1.375 0 0 1 2.948.332 1.375 1.375 0 0 1 1.96 1.99 1.375 1.375 0 0 1 .51.72a1.375 1.375 0 0 1 .988-1.657Z" fill="#5c5c5c"/></g><path data-name="Path 5846" d="M1441.743 1825.619c.073.049.08.249.345.129s0-.158 0-.289.141-.17.063-.212a1.092 1.092 0 0 0-.408 0c-.062 0-.32.064-.331.256s.257.066.331.116Z" fill="#f8f8f8" stroke="#4a4a4a" stroke-width=".3"/><path data-name="Path 5847" d="M1451.828 1825.225a9.092 9.092 0 0 1 3.654-2.04 12.711 12.711 0 0 1 4.28-.187 10.643 10.643 0 0 0-4.027-.215 8.117 8.117 0 0 0-3.907 2.442Z" fill="#9b9898" stroke="#4a4a4a" stroke-width=".3"/><path data-name="Path 5848" d="M1441.086 1824.99c-.1.035-.236 0-.368.08s-.13.139-.281.245-.4.251-.347.167.542-.412.514-.522c-.014-.056.161-.057.34-.061h.248s-.003.057-.106.091Z" fill="#f8f8f8" stroke="#4a4a4a" stroke-width=".3"/><path data-name="Path 5849" d="M1391.613 1931.355c0 .042.114.2-.27.176s-.4-.045-.408-.064-.056-.03.339-.189c.373-.193.336.035.339.077Z" fill="#f8f8f8" stroke="#4a4a4a" stroke-width=".3"/><path data-name="Path 5850" d="M1470.047 1902.459s-.388-.016-1.067-.8-.924-1.463-1.648-2.331-.717-.661-1.189-1.267-.383-.843-1.172-1.36a32.347 32.347 0 0 1-2.674-2.373c-.521-.453 1.565.153 1.565.153a2.4 2.4 0 0 1-.591-2.266 11.2 11.2 0 0 1 1.261-3.625c.092-.019.284.176.329.252s.619 1.735 1.047 2.6c.662 1.335 1.32 2.545 1.32 2.545s3.959-2.288 5.227-3.775a33.4 33.4 0 0 0 3.506-5.912c.556-1.208.938-3 .149-3.892s3.651 3.563 5.948 5.962 2.4 2.487 3.225 3.5a3.887 3.887 0 0 1 .815 1.986c.029.04.133 1.027-2 2.933-1.918 1.712-5.6 5.213-7.6 6.673-1.4 1.027-4.416 1.25-4.816 1.523-.6.287-1.635-.526-1.635-.526Z" fill="#f0f0f0" stroke="#4a4a4a" stroke-width=".3"/><path data-name="Path 5851" d="M1464.206 1894.549a2.864 2.864 0 0 1-.418-1.275 3.562 3.562 0 0 1 .138-1.82 15.653 15.653 0 0 1 .987-2.543 21.5 21.5 0 0 0 .94 2.383 53.579 53.579 0 0 0 1.375 2.679 6.7 6.7 0 0 1-1.421.492 6.435 6.435 0 0 1-1.601.084Z" fill="#8b8b8b" stroke="#4a4a4a" stroke-width=".3"/></g></g></g></svg>
