<svg xmlns="http://www.w3.org/2000/svg" xmlns:xlink="http://www.w3.org/1999/xlink" width="194.582" height="194.582" viewBox="0 0 194.582 194.582">
  <defs>
    <clipPath id="clip-path">
      <circle id="Ellipse_2456" data-name="Ellipse 2456" cx="97.291" cy="97.291" r="97.291" transform="translate(546.665 3925.25)" fill="#f8f8f8"/>
    </clipPath>
  </defs>
  <g id="Mask_Group_340" data-name="Mask Group 340" transform="translate(-546.665 -3925.25)" clip-path="url(#clip-path)">
    <g id="Group_3533" data-name="Group 3533">
      <g id="Rectangle_5107" data-name="Rectangle 5107" transform="matrix(0.999, -0.035, 0.035, 0.999, 505.629, 4033.156)" fill="#31A9FD" stroke="#707070" stroke-width="0.3">
        <rect width="293" height="141" stroke="none"/>
        <rect x="0.15" y="0.15" width="292.7" height="140.7" fill="none"/>
      </g>
      <g id="Group_3532" data-name="Group 3532" transform="translate(-1 -1.9)">
        <path id="Path_7610" data-name="Path 7610" d="M16169.8,7758.432a128.417,128.417,0,0,0,13.641-1.568c5.809-1.109,5.221-1.835,9.6-2.871s6.053-1.646,7.9-1.271,6.916,1.29,7.979,1.271,6.207,1.685,6.207,1.685v21.44l-45.322-1.268Z" transform="translate(-15455.975 -3735.376)" fill="#fff" stroke="#707070" stroke-width="0.3"/>
        <path id="Path_7611" data-name="Path 7611" d="M15472.639,7726.155a2.948,2.948,0,0,1,2.657,2.285c.666,2.268,7.794,2.383,9.472,2.912s2.458,1.9,5.923,3.059,10.356,2.992,13.074,3.081a13.044,13.044,0,0,1,4.837,1.136v14.062l-40.115.592Z" transform="translate(-14940.862 -3718.733)" fill="#848484" stroke="#707070" stroke-width="0.3"/>
        <path id="Path_7612" data-name="Path 7612" d="M15972.177,7765.683s-10.848-1.456-15.258-1.524-17.932-5.894-19.871-6.341-3.719.648-7.988,0a40.72,40.72,0,0,1-9.508-3.188s-4.375.536-5.787-1.554-.375-4.829-.375-4.829l-2.295-7.57s-4.277-1.93-3.006-5.566,3.006-3.259,3.006-3.259l1.217-8.612s-2.816-1.334-2.637-3.533.951-4.184,3.715-5.1,7.33,1.426,7.33,1.426l4.215-6.454s-1.545-2.6-.625-4.518,2.548-2.949,5.981-2.35a13.01,13.01,0,0,1,6.757,2.814c1.922,1.473,2.979,2.161,4.531,3.58s2.77.474,2.77.474l8.354-7.208a9.5,9.5,0,0,1,2.428-3.274c1.6-1.305,4.5-2.618,7.213-1.12s2.7,1.821,5.9,4.394,8.189,6.015,9.486,11.442,1.6,5.684,1.924,8.446c.127,1.088,1.2,2.367,1.967,3.859,1.092,2.117,2.006,4.336,2.006,4.336Z" transform="translate(-15263.575 -3697.545)" fill="#f0f0f0" stroke="#4a4a4a" stroke-width="0.3"/>
        <path id="Path_7613" data-name="Path 7613" d="M15641.81,7717.8s2.3-1.229,4.595-2.262a4.959,4.959,0,0,1,4.854.585c.65.42,2.1,2.075,3.357,2.681s7.438,3.318,7.883,4.08-.724,2.157-.724,2.157a8.915,8.915,0,0,1,3.818-1.1c1.908,0,3.509.06,4.077.51a5.41,5.41,0,0,1,2.525,3.286,3.784,3.784,0,0,1-.761,3.556c-.5.7-1.955,2.576-1.955,2.576l7.795,6.089s.968.425,1.3,2.8-.634,3.479-1.771,4.173a13.586,13.586,0,0,1-2.625,1.154l1.334,5.813a3.28,3.28,0,0,1,.789,3.736,4.421,4.421,0,0,1-3.617,3.127,24.317,24.317,0,0,1-4.325.228l.162,5.274a4.728,4.728,0,0,1-2.492,1.69c-1.8.587-1.833,1.087-4.179,1.586s-3.964.357-5.28.653-3.133.927-6.1,1.47-8.4,1.45-8.4,1.45l-21.537-39.308,14.654-14.562Z" transform="translate(-15052.54 -3710.638)" fill="#fafafa" stroke="#4a4a4a" stroke-width="0.3"/>
        <path id="Path_7614" data-name="Path 7614" d="M15771.238,7739.7s2.131.4,2.086.927-1.262.275-1.262.275Z" transform="translate(-15163.232 -3728.679)" fill="#fff" stroke="#4a4a4a" stroke-width="0.3"/>
        <g id="Group_3528" data-name="Group 3528" transform="translate(564.727 4002.84)">
          <g id="Group_3527" data-name="Group 3527" transform="translate(0 0)">
            <path id="Path_7615" data-name="Path 7615" d="M15608.231,7731.921s1.158-7.187,2.182-9.546,2.187-2.774,3.1-4.18,2.045-3.643,2.742-4.513,1.019-.845,1.661-1.723a9.631,9.631,0,0,1,2.811-2.787c1.077-.537,2.99-.138,4.149,0s1.6,1.1,3.218,1.992,2.31,1.045,3.264,1.566,1.021.952,1.021.952,2.408-.784,3.956.5-2.023,6.189-5.539,7.089-8.616-.74-8.616-.74a29.177,29.177,0,0,0-2.254,1.984c-1.046,1.041-7.206,8.476-7.206,8.476s-1.184.27-2.311.518S15608.231,7731.921,15608.231,7731.921Z" transform="translate(-15608.231 -7708.9)" fill="#f4f4f4" stroke="#4a4a4a" stroke-width="0.3"/>
            <path id="Path_7616" data-name="Path 7616" d="M15707.578,7741.633c-.231.071,1.123-2.067,2.1-3.448s1.307-1.342,1.814-2.071a9.326,9.326,0,0,1,2.968-2.778,6.745,6.745,0,0,1,9.438,2.064c.65,1.176.379,2.378-.5,4.022s-3.645,5.065-4.6,6.791a25.589,25.589,0,0,1-2.288,3.637c-1.516,2.177-2.125,3.665-4.174,5.541s-3.184,2.982-5.437,1.017a4.322,4.322,0,0,1-.836-5.591c.639-1.152,2.46-5.5,3.05-6.694s1.476-2.355,1.45-2.489A14.7,14.7,0,0,0,15707.578,7741.633Z" transform="translate(-15679.6 -7725.994)" fill="#f4f4f4" stroke="#4a4a4a" stroke-width="0.3"/>
            <path id="Path_7617" data-name="Path 7617" d="M15758.058,7782.269a7.542,7.542,0,0,1,5.5-1.877,5.07,5.07,0,0,1,4.685,2.986,4.789,4.789,0,0,1-.269,4.67,8.717,8.717,0,0,1-2.395,1.973c-1.253.816-2.088.875-2.616,1.292a12.467,12.467,0,0,1-2.73,1.989c-1.257.578-2.265.629-4.924,1.807s-3.418,2.217-6.17,2.994-4.705-.15-5.054-2.994,1.539-3.893,2.571-4.661a23.3,23.3,0,0,1,2.942-2.4c1.678-1.031,2.421-1.251,3.976-2.185A32.5,32.5,0,0,0,15758.058,7782.269Z" transform="translate(-15707.986 -7761.396)" fill="#f4f4f4" stroke="#4a4a4a" stroke-width="0.3"/>
            <path id="Path_7618" data-name="Path 7618" d="M15768.376,7840.594a5.226,5.226,0,0,1-.488,4.366c-.682.951-2.355,1.452-3.656,2.2a14.3,14.3,0,0,1-2.8,1.381,32.873,32.873,0,0,1-5.457.879c-3.307.4-4.877,1.091-7.575.805s-3.228-1.6-3.287-4.218,2.445-3.283,3.486-3.665,4.363-.772,5.655-1.156,4.019-1.642,5.689-2.086a15.852,15.852,0,0,1,3.479-.249,14.54,14.54,0,0,1,2.314-.4A4.517,4.517,0,0,1,15768.376,7840.594Z" transform="translate(-15708.768 -7804.05)" fill="#f4f4f4" stroke="#4a4a4a" stroke-width="0.3"/>
            <path id="Path_7619" data-name="Path 7619" d="M15742.066,7889.636a2.5,2.5,0,0,1,2.774-2.1c.411.023,2.046.029,3.787.19s2.616.279,3.169.284a24.457,24.457,0,0,1,3.017-.474c1.753-.066,3.553-.62,4.173-.134s.874,1.751.628,3.213a3.975,3.975,0,0,1-1.8,2.613,14.885,14.885,0,0,1-2.574.672,8.8,8.8,0,0,1-3.065.767,16.815,16.815,0,0,1-5.51-.361c-2.345-.431-3.225-.9-3.64-1.309A3.011,3.011,0,0,1,15742.066,7889.636Z" transform="translate(-15706.438 -7839.864)" fill="#f4f4f4" stroke="#4a4a4a" stroke-width="0.3"/>
          </g>
        </g>
        <g id="Group_3529" data-name="Group 3529" transform="translate(584.361 4006.878)">
          <path id="Path_7620" data-name="Path 7620" d="M15683.853,7724.283a10.581,10.581,0,0,1,4.511.168,11,11,0,0,1,2.246.726c-.632-.205-3.7,2.314-5.91,2.515s-2.474-1.436-2.512-1.726S15682.29,7724.647,15683.853,7724.283Z" transform="translate(-15682.183 -7724.104)" fill="#fafafa" stroke="#4a4a4a" stroke-width="0.3"/>
          <path id="Path_7621" data-name="Path 7621" d="M15716.735,7803.183c.884.883.431,2.344-.16,3.142a27.954,27.954,0,0,1-1.738,2.328c-.611.654-1.64,0-2.5-.844a2.354,2.354,0,0,1-.762-2.536,7.336,7.336,0,0,1,2.173-2.248C15714.191,7802.817,15715.854,7802.3,15716.735,7803.183Z" transform="translate(-15703.677 -7781.821)" fill="#fafafa" stroke="#4a4a4a" stroke-width="0.3"/>
          <path id="Path_7622" data-name="Path 7622" d="M15752.2,7825.781c1.359-.24,2.017-.414,2.518-.431a2.032,2.032,0,0,1,1.938,1.419,2.607,2.607,0,0,1-.841,2.932,11.815,11.815,0,0,1-2.989,1.322c-.712.274-1.216-1.071-1.577-2.542S15750.838,7826.021,15752.2,7825.781Z" transform="translate(-15732.749 -7798.469)" fill="#fafafa" stroke="#4a4a4a" stroke-width="0.3"/>
          <path id="Path_7623" data-name="Path 7623" d="M15754.572,7864.945c.083-1.022-.327-2.055-.111-2.223a9.031,9.031,0,0,1,2.769-.194c.624.087,1.357.654,1.322,2.256a1.943,1.943,0,0,1-1.863,2.026c-.659.1-2.794.28-2.56,0A3.643,3.643,0,0,0,15754.572,7864.945Z" transform="translate(-15735.015 -7825.754)" fill="#fafafa" stroke="#4a4a4a" stroke-width="0.3"/>
          <path id="Path_7624" data-name="Path 7624" d="M15749.011,7895.981c.043-.936-.412-1.536,0-1.627a10.185,10.185,0,0,1,2.37,0,1.654,1.654,0,0,1,1.517,1.721,1.512,1.512,0,0,1-1.318,1.621,26.333,26.333,0,0,1-2.873,0C15748.39,7897.68,15748.969,7896.917,15749.011,7895.981Z" transform="translate(-15730.975 -7849.102)" fill="#fafafa" stroke="#4a4a4a" stroke-width="0.3"/>
        </g>
        <g id="Group_3530" data-name="Group 3530" transform="translate(643.214 4003.444)">
          <path id="Path_7625" data-name="Path 7625" d="M15962.345,7892.439c-.865-2.058-2.51-1.6-3.4-1.47a16.2,16.2,0,0,0-4.334,1.307c-2.656,1.057-4.754,2.018-6.422,2.843s-3.311.883-4.029,1.978a4.6,4.6,0,0,0,0,4.324c.721,1.225,1.982,1.354,3.1,1.494a27.767,27.767,0,0,0,5.238-.152c1.344-.128,3.428-1.344,5.425-2.719.905-.621,1.913-1.411,2.448-1.865C15961.712,7897.042,15963.21,7894.5,15962.345,7892.439Z" transform="translate(-15933.06 -7843.133)" fill="#ededed" stroke="#4a4a4a" stroke-width="0.3"/>
          <path id="Path_7626" data-name="Path 7626" d="M15930.629,7860.385c.234-3-2.016-3.783-3.23-4.128a13.887,13.887,0,0,0-4.652-.4c-1.631.147-2.99.542-4.48.7s-2.318-.017-3.666.108-1.637.258-2.664.28a21.45,21.45,0,0,1-4.678-.28c-1.025-.32-2.25.717-2.971,1.841s-.5,3.4.266,4.724,1.938,1.661,3.531,2.287a12.313,12.313,0,0,0,4.99.888c2.8.146,3.576-.189,7.074-.46s6.74-.752,7.861-1.39S15930.4,7863.382,15930.629,7860.385Z" transform="translate(-15903.848 -7817.406)" fill="#ededed" stroke="#4a4a4a" stroke-width="0.3"/>
          <path id="Path_7627" data-name="Path 7627" d="M15906.087,7797.008a4.313,4.313,0,0,1,3.84-3.1,18.114,18.114,0,0,1,7.193.775,19.672,19.672,0,0,1,5.973,3.2,14.046,14.046,0,0,0,2.586.792,69.154,69.154,0,0,1,7.277,2.861,5.692,5.692,0,0,1,2.867,5.911,4.056,4.056,0,0,1-4.7,3.549,43.382,43.382,0,0,1-5.859-1.818,34.109,34.109,0,0,1-3.42-1.438c-.787-.3-3.689-.12-7.49-1.67a30.332,30.332,0,0,1-7.014-3.667C15905.9,7801.332,15905.091,7799.85,15906.087,7797.008Z" transform="translate(-15905.169 -7771.871)" fill="#ededed" stroke="#4a4a4a" stroke-width="0.3"/>
          <path id="Path_7628" data-name="Path 7628" d="M15948.573,7741.224c2.105-.771,5.961.048,7.75.969s3.117,3.376,5.346,4.406,6.168,4.366,7.059,5.2,4.2,4.724,2.131,7.518-4.291,1.776-5.508,1.735a13.714,13.714,0,0,1-5.545-2.185,35.027,35.027,0,0,1-3.705-2.938c-.863-.668-5.541-3.125-8.25-5.744s-2.15-3.966-2.137-4.873A4.856,4.856,0,0,1,15948.573,7741.224Z" transform="translate(-15934.557 -7733.02)" fill="#ededed" stroke="#4a4a4a" stroke-width="0.3"/>
          <path id="Path_7629" data-name="Path 7629" d="M16047.789,7718.506c-.121-.783-3.631-3.812-5.334-5.167s-2.025-2.059-4.316-2.155a4.948,4.948,0,0,0-4.49,1.645c-1.387,1.316-1.854,2.529-3.1,4.425s-3.172,4.718-2.99,7.651,2.162,3.564,5.414,4.056a8.89,8.89,0,0,0,7.4-2.443c1.455-1.413,2.926-4.972,3.018-4.374s2.559.238,2.688,0a6.443,6.443,0,0,1,.984-1.126,4.711,4.711,0,0,1,.887-.686S16047.91,7719.289,16047.789,7718.506Z" transform="translate(-15994.706 -7711.17)" fill="#ededed" stroke="#4a4a4a" stroke-width="0.3"/>
        </g>
        <g id="Group_3531" data-name="Group 3531" transform="translate(661.084 4011.874)">
          <path id="Path_7630" data-name="Path 7630" d="M16034.179,7749.37a6.825,6.825,0,0,0,4.906-.6c1.607-.875,1.316-2.3,1.521-2.9s-.461-2.444-3.213-2.875a4.391,4.391,0,0,0-4.094,1.243,9.175,9.175,0,0,0-1.961,2.856C16031.007,7748.3,16032.1,7749.062,16034.179,7749.37Z" transform="translate(-16015.315 -7742.925)" fill="#f7f7f7" stroke="#4a4a4a" stroke-width="0.3"/>
          <path id="Path_7631" data-name="Path 7631" d="M16009.454,7791.979a2.933,2.933,0,0,1,3.217-1.755c1.82.1,3.541,1.167,3.922,2.07a3.692,3.692,0,0,1-.525,3.719c-1.029,1.183-1.8.73-3.576.42s-2.447-.875-2.8-1.407A2.9,2.9,0,0,1,16009.454,7791.979Z" transform="translate(-15999.034 -7777.658)" fill="#f7f7f7" stroke="#4a4a4a" stroke-width="0.3"/>
          <path id="Path_7632" data-name="Path 7632" d="M15984.125,7832.224a2.4,2.4,0,0,1,2.84-2.064c1.4.125,3.988-.089,3.854.76s.328,1.843,0,3.385-1.01,2.7-1.455,2.633a23.657,23.657,0,0,1-4.279-1.442A3.449,3.449,0,0,1,15984.125,7832.224Z" transform="translate(-15980.598 -7806.984)" fill="#f7f7f7" stroke="#4a4a4a" stroke-width="0.3"/>
          <path id="Path_7633" data-name="Path 7633" d="M15971.2,7866.159a2.7,2.7,0,0,1,1.332-2.871c.867-.561,1.238-.535,2.664-.584s3.148.09,3.041.584a6.748,6.748,0,0,0,0,2.136c.1,1.249.162,2.629-.254,2.87a12.425,12.425,0,0,1-4.83.165A2.627,2.627,0,0,1,15971.2,7866.159Z" transform="translate(-15971.152 -7830.895)" fill="#f7f7f7" stroke="#4a4a4a" stroke-width="0.3"/>
          <path id="Path_7634" data-name="Path 7634" d="M15986.275,7897.043a1.946,1.946,0,0,1,.961-2.662c.857-.544,2.918-1.457,3.783-1.254s1,.691,1.3,1.518.734,1.939.334,2.543-1.855.993-2.687,1.174S15986.881,7898.309,15986.275,7897.043Z" transform="translate(-15982.094 -7853.227)" fill="#f7f7f7" stroke="#4a4a4a" stroke-width="0.3"/>
        </g>
        <path id="Path_7635" data-name="Path 7635" d="M15444.105,7792.7s14.878,2.411,18.443,2.48,4.775,0,7.036,0a8.492,8.492,0,0,0,2.517-.128c.459-.088,2.4-1.205,3.038-1.4s16.723-3.292,18.858-3.516,5.564,4.374,10.416,12.171c1.674,2.69,5.275,7.4,6.876,10.842,2.968,6.379,3.177,13,2.416,15.168a7.407,7.407,0,0,1-5.17,4.9c-1.658.516-10.291.257-27.179,3.564s-36.234,8.609-36.234,8.609Z" transform="translate(-14922.955 -3765.72)" fill="#727272" stroke="#707070" stroke-width="0.3"/>
        <path id="Path_7636" data-name="Path 7636" d="M16134.067,7849.4c-1.416-1.648-1.592-8.474-.955-16.526s2.867-13.834,4.406-16.155,7.477-3.889,9.037-3.5.6.292,10.17,1.577,26.955,3.712,26.955,3.712v46.512s-1.766-1.192-8.355-3.093a161.5,161.5,0,0,0-18.006-4.51c-7.748-1.458-11.455-2.21-13.568-2.419S16135.487,7851.047,16134.067,7849.4Z" transform="translate(-15428.769 -3782.634)" fill="#fff" stroke="#707070" stroke-width="0.3"/>
        <path id="Path_7637" data-name="Path 7637" d="M16227.1,7933.471v5.957s1.51,4.4,2.078,4.48.537-4.48.537-4.48Z" transform="translate(-15501.78 -3871.537)" fill="#ddd" stroke="#4a4a4a" stroke-width="0.3"/>
        <g id="Ellipse_2455" data-name="Ellipse 2455" transform="translate(723.437 4065.261)" fill="#f7f7f7" stroke="#4a4a4a" stroke-width="0.3">
          <ellipse cx="3.053" cy="3.186" rx="3.053" ry="3.186" stroke="none"/>
          <ellipse cx="3.053" cy="3.186" rx="2.903" ry="3.036" fill="none"/>
        </g>
      </g>
    </g>
  </g>
</svg>
