<svg xmlns="http://www.w3.org/2000/svg" xmlns:xlink="http://www.w3.org/1999/xlink" width="16.711" height="16.711" viewBox="0 0 16.711 16.711">
  <defs>
    <clipPath id="clip-path">
      <rect width="16.711" height="16.711" fill="none"/>
    </clipPath>
  </defs>
  <g id="Phone" clip-path="url(#clip-path)">
    <path id="Path_110" data-name="Path 110" d="M9.7,11.936l1.79-1.641a.548.548,0,0,1,.448-.149l.3.149,4.178,1.94c.3.149.3.3.3.6a3.782,3.782,0,0,1-1.194,2.686,4.274,4.274,0,0,1-3.133,1.194,9.091,9.091,0,0,1-4.178-1.044,19.56,19.56,0,0,1-4.178-2.984A25.414,25.414,0,0,1,1.79,9.4,20.624,20.624,0,0,1,.3,6.117,9.182,9.182,0,0,1,0,3.283,3.921,3.921,0,0,1,1.044,1.044,4.537,4.537,0,0,1,3.879,0a.775.775,0,0,1,.6.3L6.714,4.476a.521.521,0,0,0,.149.3.548.548,0,0,1-.149.448l-1.94,1.79a.666.666,0,0,0,0,.746,14.248,14.248,0,0,0,1.79,2.387,15.065,15.065,0,0,0,2.387,1.94C9.251,12.235,9.549,12.235,9.7,11.936Z" transform="translate(0 0)" fill="#4a4a4a"/>
  </g>
</svg>
