<svg xmlns="http://www.w3.org/2000/svg" xmlns:xlink="http://www.w3.org/1999/xlink" width="195" height="195" viewBox="0 0 195 195">
  <defs>
    <clipPath id="clip-path">
      <circle id="Ellipse_2453" data-name="Ellipse 2453" cx="97.5" cy="97.5" r="97.5" transform="translate(867.906 5290.837)" fill="none"/>
    </clipPath>
  </defs>
  <g id="Mask_Group_339" data-name="Mask Group 339" transform="translate(-867.906 -5290.837)" clip-path="url(#clip-path)">
    <g id="Group_3526" data-name="Group 3526" transform="translate(774.737 5291.063)">
      <rect id="Rectangle_5105" data-name="Rectangle 5105" width="311.443" height="207.628" transform="translate(0)" fill="#f0f0f0"/>
      <path id="Path_7595" data-name="Path 7595" d="M5847.094-4034.767H5535.932v99.638h311.162Z" transform="translate(-5535.829 4142.856)" fill="#31A9FD"/>
      <path id="Path_7596" data-name="Path 7596" d="M5616.04-4003.713s16.815,1.157,35.5,1.666,66.626-1.3,98.5-3.074,57.679-1.923,57.679-1.923,5.979,4.764,9.524,6.44,65.575,34.065,65.575,34.065-80.795,9.563-163.451,12.751-167.175,0-167.175,0,54.152-38.984,58.075-42.074A20.84,20.84,0,0,0,5616.04-4003.713Z" transform="translate(-5548.493 4123.193)" fill="#fff"/>
      <rect id="Rectangle_5106" data-name="Rectangle 5106" width="42.648" height="81.929" transform="translate(238.492 0.24)" fill="#777"/>
      <path id="Path_7597" data-name="Path 7597" d="M5790.015-4327.449c-3.988,6.058-3.293,18.3-3.293,18.3l7.538,1.787s-5.27,1.455-7.96.583-1.638-2.293-2.8-4.074-4.632-2.427-6.849-8.58-2.627-14.734-.713-25.967c.954-5.608,4-12.8,8.138-19.229,4.106-6.372,9.708-10.314,9.312-11.966s-1.328-7.709,1.58-12.052,9.291-4.349,10.049-5.317.219-6.648,1.8-8.337,4.1-.441,6.439-4.266,2.972-14.087,2.972-14.087l145.492.11s-7.884,19.405-8.429,25.113,8.429,48.965,8.429,48.965l5.83-4.208s13.461-29.965,13.119-40,.57-29.874.57-29.874l38.73.025-.176,108.065-165.3-.069L5827-4352.835s-8.634-.227-17.879,6.122S5795.294-4335.469,5790.015-4327.449Z" transform="translate(-5708.579 4420.75)" fill="#909090"/>
      <path id="Path_7598" data-name="Path 7598" d="M6419.763-4188.55a39.867,39.867,0,0,1-5.5.241c-2.712-.134-4.9-.721-5.426-.241a4.937,4.937,0,0,1-2.343,1.075s-4.815,1.226-8.051,1.721-3.762.164-4.205.456-.765.6-1.673,1.335-7.237,5.209-10.589,6.053-4.569,3.846-7.711,4.948-10.408,2.045-13.324,1.253-2.638-4.542-1.2-5.526,2.273-1.5,5-3.341,5.531-3.917,9.965-7.351,7.344-5.779,7.774-6.389,1.679-3.022,3.665-4.26a67.823,67.823,0,0,1-7.194,4.26c-3.238,1.569-4.976,1.854-5.7,2.543a84.593,84.593,0,0,1-9.139,6.7c-4.159,2.625-6.077,2.531-9.594,5.854s-6.195,5.172-9.644,6.26-6.083.731-6.9,0-2.133-2.107-2.133-2.107-3.526.8-4.7-.757-.229-4.469,1.361-6.255,3.97-4.517,3.97-4.517a13.326,13.326,0,0,1,2.95-4.959c2.355-2.646,7.028-8.589,7.028-8.589s-.811-3.173.837-4.977,5.568-1.914,5.568-1.914,2.495-3.111,4.1-4.749,1.594-2.489,3.854-3.868,6.686-4.6,12.985-8.422,9.69-5.39,11.688-7.192,4.535-4.169,8.7-4.785,7.2,2.339,8.994,2.744,16.6,3.5,16.6,3.5Z" transform="translate(-6108.507 4288.004)" fill="#f0f0f0"/>
      <path id="Path_7599" data-name="Path 7599" d="M5919.862-4176.406l-19.76,1.806-22.347,27.6,19.3,20.3h3.92Z" transform="translate(-5782.708 4245.033)" fill="#848484"/>
      <ellipse id="Ellipse_2449" data-name="Ellipse 2449" cx="2.385" cy="5.612" rx="2.385" ry="5.612" transform="translate(73.821 92.09) rotate(13)" fill="#f0f0f0"/>
      <ellipse id="Ellipse_2450" data-name="Ellipse 2450" cx="2.146" cy="5.201" rx="2.146" ry="5.201" transform="translate(71.578 90.192) rotate(13)" fill="#f0f0f0"/>
      <ellipse id="Ellipse_2451" data-name="Ellipse 2451" cx="2.006" cy="4.78" rx="2.006" ry="4.78" transform="translate(69.699 88.548) rotate(13)" fill="#f0f0f0"/>
      <ellipse id="Ellipse_2452" data-name="Ellipse 2452" cx="1.725" cy="4.219" rx="1.725" ry="4.219" transform="translate(68.589 86.964) rotate(13)" fill="#f0f0f0"/>
      <path id="Path_7600" data-name="Path 7600" d="M5855.519-4132.523a26.987,26.987,0,0,1-3.972-.806,16.3,16.3,0,0,1-2.965-1.332s-9.088.166-15.038-1.246-16.464-4.1-16.838-4.338.077-13.4,2.911-17.586a51.9,51.9,0,0,1,7.737-10.389c4.868-5.021,11.173-10.314,15.489-12.209a73.883,73.883,0,0,1,22.825-5.367,58.041,58.041,0,0,1,11.862.3l-4.414,2.84s-13.752,1.032-21.508,8.385-9.514,12.838-8.758,22.846,11.058,16.761,11.058,16.761Z" transform="translate(-5738.705 4251.906)" fill="#bababa"/>
      <path id="Path_7601" data-name="Path 7601" d="M6101.85-4285.163s-.729-.735-.952-.993-1.855-.106-1.855-.106-3.556-4.067-3.761-4.26a3.574,3.574,0,0,0-2.751,1.113,3.771,3.771,0,0,0-1.176,2.583c.164.157,3.714,4.124,3.714,4.124s-.17,1.326.059,1.65.7.935.7.935Z" transform="translate(-5936.351 4327.171)" fill="#d3d3d3"/>
      <path id="Path_7602" data-name="Path 7602" d="M6113.137-4272.122c.4.475,53.632,61.978,53.632,61.978s13.656,19.775,12.039,20.839-19.417-15.891-19.417-15.891-52.714-61.466-52.968-61.977,1.007-2.784,2.611-4S6112.741-4272.6,6113.137-4272.122Z" transform="translate(-5947.192 4314.065)" fill="#555"/>
      <path id="Path_7603" data-name="Path 7603" d="M6343.709-4001.793l-2.228-3.851a5.966,5.966,0,0,0-2.278,1.073,5.366,5.366,0,0,0-1.341,2.032l3.279,2.771a4.882,4.882,0,0,1,1.078-1.311A4.467,4.467,0,0,1,6343.709-4001.793Z" transform="translate(-6113.717 4122.183)" fill="#f0f0f0"/>
      <path id="Path_7604" data-name="Path 7604" d="M5948.936-4226.923c-2.948,1.625-6.052,1.863-8.621,3.291s-3.459,2.672-5.483,4.611-2.494,4.563-4.476,7.36-5.668,6.263-5.82,13.9,4.444,13.183,5.353,14.271,2.134,5.547,5.055,6.925,15.4,2.043,15.9,2.347.932.548,3.153.548a20.414,20.414,0,0,0,5.709-.928,16.023,16.023,0,0,1,7.788.379c2.546.785,5.309,2,7.155,2.184s9.3.749,12.048-.364a10.882,10.882,0,0,0,4.807-4.125,8.628,8.628,0,0,0,1.1-2.945,21.979,21.979,0,0,0,6.132,3.5,7.262,7.262,0,0,0,6.645-1.149,12.109,12.109,0,0,0,3.652-5.5,18.149,18.149,0,0,0,.342-4.557,52.628,52.628,0,0,1,4.407,5.549c.894,1.624.746,2.185,2.217,3.882s5.421,1.573,7.913-.632,2-4.472,2.422-5.119,2.326-2.813,2.719-4.079a31.423,31.423,0,0,0,.66-4.463,5.611,5.611,0,0,0,3.7,2.858,7.793,7.793,0,0,0,6.408-1.771c1.408-1.376,1.425-3.73,1.548-4.717s-.69-2.14-.917-2.8-.334-1.347-.631-2.417a82.512,82.512,0,0,0-6.668-13.947c-3.592-5.894-4.42-7.145-7.485-12.628s-5.16-9.347-11.1-11.553a133.072,133.072,0,0,0-12.938-4.088c-1.471-.34-3.938-.658-4.579-.8s-3.357-1.351-8.026-2.709-6.78-2.948-10.206-2.239-4.252,2.876-7.677,4.907-3.774,1.1-6.579,4.076a104.156,104.156,0,0,1-7.671,7.4A36.3,36.3,0,0,1,5948.936-4226.923Z" transform="translate(-5816.361 4297.269)" fill="#f0f0f0"/>
      <path id="Path_7605" data-name="Path 7605" d="M6304.432-4085.031c1.253-1.78,2.119-4.287,4.049-1.435s3.077,3.7,3.831,6.162-.651,3.548-2.62,4.731-4.453.949-5.26,0-2.958-4.265-3.018-5.714S6303.181-4083.252,6304.432-4085.031Z" transform="translate(-6087.497 4181.258)" fill="#f0f0f0"/>
      <path id="Path_7606" data-name="Path 7606" d="M6266.146-4013.847c.37-.512-.224,3.014-2.39,4.863a6.4,6.4,0,0,1-5.479,1.187c-.48-.318,1.393-2.956,3.12-2.908S6265.426-4012.849,6266.146-4013.847Z" transform="translate(-6056.408 4128.122)" fill="#f0f0f0"/>
      <path id="Path_7607" data-name="Path 7607" d="M6438.83-4034.763a2.9,2.9,0,0,1,2.448,3.462c-.483,2.052-1.963,2.622-4.969,3.776s-3.974-1.128-4.182-1.749-.685-1.887,1.612-2.944S6437.881-4034.672,6438.83-4034.763Z" transform="translate(-6181.4 4143.135)" fill="#f0f0f0"/>
      <path id="Path_7608" data-name="Path 7608" d="M6357.8-4046.731c1.353.158,2.314,2.419,1.565,4.87s-2.6,3.4-4.568,4.13-2.555-.494-3.3-1.232-1.282-2.4.8-4.193S6356.447-4046.89,6357.8-4046.731Z" transform="translate(-6123.049 4151.752)" fill="#f0f0f0"/>
      <path id="Path_7609" data-name="Path 7609" d="M6336.829-4054.874c.739.282,1.257,1.2,2.453,2.933s-2.188,5.3-4.114,6.695-2.778.273-3.589-1.123-.411-3.339,1.393-5.183S6336.087-4055.156,6336.829-4054.874Z" transform="translate(-6108.91 4157.621)" fill="#f0f0f0"/>
    </g>
  </g>
</svg>
