<svg xmlns="http://www.w3.org/2000/svg" xmlns:xlink="http://www.w3.org/1999/xlink" width="212.699" height="194.48" viewBox="0 0 212.699 194.48">
  <defs>
    <clipPath id="clip-path">
      <path id="Path_7749" data-name="Path 7749" d="M97.241,0A97.24,97.24,0,1,1,0,97.24,97.24,97.24,0,0,1,97.241,0Z" transform="translate(1536.02 1914.133)" fill="#f8f8f8"/>
    </clipPath>
  </defs>
  <g id="Group_3739" data-name="Group 3739" transform="translate(-1296.02 -1914.133)">
    <path id="Path_7284" data-name="Path 7284" d="M97.241,0A97.24,97.24,0,1,1,0,97.24,97.24,97.24,0,0,1,97.241,0Z" transform="translate(1296.02 1914.133)" fill="#f8f8f8"/>
    <g id="Mask_Group_350" data-name="Mask Group 350" transform="translate(-240)" clip-path="url(#clip-path)">
      <path id="Path_7750" data-name="Path 7750" d="M0,0H217V83H0Z" transform="translate(1528.976 2055.736) rotate(-3)" fill="#31A9FD"/>
    </g>
    <path id="Path_7285" data-name="Path 7285" d="M68.726,0S58.7,4.181,53.707,5.61s-45.714,16.5-45.714,16.5S-2.544,25.349.579,36.934,12.02,43.9,12.02,43.9s38.807-20.553,43.23-22.542,14.5-6.274,14.5-6.274Z" transform="translate(1478.436 2069.104) rotate(-138)" fill="#a7a7a7" stroke="#4a4a4a" stroke-width="0.4"/>
    <path id="Path_7289" data-name="Path 7289" d="M2.448,20.456s2,2.894,6.569,2.25,8.906-4.558,7.2-12.874S10.787-.65,5.6.157,0,3.981,0,3.981s2.988,4.042,3.524,7.946A21.705,21.705,0,0,1,2.448,20.456Z" transform="translate(1427.665 2003.811) rotate(17)" fill="#9a9a9a" stroke="#4a4a4a" stroke-width="0.4"/>
    <path id="Path_7286" data-name="Path 7286" d="M2772.363,2375.773c-53.346-.08-61.9-9.161-61.9-9.161s-.718-5.854.891-8.467,5.542-1.983,5.542-1.983h113.05s4.763-.482,6.519,2.13.5,8.32.5,8.32S2825.709,2375.854,2772.363,2375.773Z" transform="matrix(1, 0.017, -0.017, 1, -1335.28, -339.503)" fill="#a3a3a3" stroke="#4a4a4a" stroke-width="0.4"/>
    <g id="Path_7751" data-name="Path 7751" transform="matrix(1, 0.017, -0.017, 1, 1335.911, 2060.092)" fill="#9a9a9a">
      <path d="M 61.1677360534668 8.14109992980957 C 44.83366012573242 8.14109992980957 29.47792053222656 7.707453727722168 17.92922782897949 6.920038223266602 C 12.31776714324951 6.537423133850098 7.913474559783936 6.09211540222168 4.838689804077148 5.596453666687012 C 0.4236437380313873 4.884746074676514 0.1999975889921188 4.283792018890381 0.1999975889921188 4.170546054840088 C 0.1999975889921188 4.057300090789795 0.4236437380313873 3.456346035003662 4.838689804077148 2.744638442993164 C 7.913474559783936 2.248976707458496 12.31776714324951 1.803669095039368 17.92922782897949 1.421069145202637 C 29.4779052734375 0.6336537599563599 44.83364486694336 0.2000075876712799 61.1677360534668 0.2000075876712799 C 77.5018310546875 0.2000075876712799 92.85756683349609 0.6336537599563599 104.4062423706055 1.421069145202637 C 110.017707824707 1.803669095039368 114.4219970703125 2.248976707458496 117.4967803955078 2.744638442993164 C 121.9118270874023 3.456346035003662 122.1354751586914 4.057300090789795 122.1354751586914 4.170546054840088 C 122.1354751586914 4.283792018890381 121.9118270874023 4.884746074676514 117.4967803955078 5.596453666687012 C 114.4219970703125 6.09211540222168 110.017707824707 6.537423133850098 104.4062423706055 6.920038223266602 C 92.85755157470703 7.707453727722168 77.50181579589844 8.14109992980957 61.1677360534668 8.14109992980957 Z" stroke="none"/>
      <path d="M 61.1677360534668 0.3999919891357422 C 45.20323181152344 0.3999919891357422 30.09925842285156 0.8168997764587402 18.63813781738281 1.573930740356445 C 13.07044219970703 1.941684722900391 8.637367248535156 2.370992183685303 5.462028503417969 2.849884510040283 C 1.297653198242188 3.477960109710693 0.5489730834960938 4.021714687347412 0.4182357788085938 4.170546054840088 C 0.5489730834960938 4.319377422332764 1.297653198242188 4.863130569458008 5.462028503417969 5.491191864013672 C 8.637351989746094 5.970099925994873 13.07044219970703 6.399392127990723 18.63813781738281 6.767146110534668 C 30.0992431640625 7.524176597595215 45.20321655273438 7.941084384918213 61.1677360534668 7.941084384918213 C 77.13226318359375 7.941084384918213 92.23622894287109 7.524176597595215 103.6973342895508 6.767146110534668 C 109.2650299072266 6.399392127990723 113.6981201171875 5.970099925994873 116.8734436035156 5.491191864013672 C 121.0378189086914 4.863130569458008 121.7864990234375 4.319377422332764 121.917236328125 4.170546054840088 C 121.7864990234375 4.021714687347412 121.0378189086914 3.477960109710693 116.8734436035156 2.849884510040283 C 113.6981048583984 2.370992183685303 109.2650299072266 1.941684722900391 103.6973342895508 1.573930740356445 C 92.23621368408203 0.8168997764587402 77.13224792480469 0.3999919891357422 61.1677360534668 0.3999919891357422 M 61.1677360534668 -7.62939453125e-06 C 94.94973754882812 -7.62939453125e-06 122.3354721069336 1.867222785949707 122.3354721069336 4.170546054840088 C 122.3354721069336 6.473869323730469 94.94973754882812 8.341084480285645 61.1677360534668 8.341084480285645 C 27.38573455810547 8.341084480285645 0 6.473869323730469 0 4.170546054840088 C 0 1.867222785949707 27.38573455810547 -7.62939453125e-06 61.1677360534668 -7.62939453125e-06 Z" stroke="none" fill="#4a4a4a"/>
    </g>
    <path id="Path_7288" data-name="Path 7288" d="M4.263,23.133c1.183.931,3.057.733,6.683.2s7.928-5.056,6.735-12.591S11.506-.453,7.437.045c-.675.083-3.871,1.044-4.53,1.2C.263,1.887.407,3.035.038,8.028-.4,14.016,3.08,22.2,4.263,23.133Z" transform="translate(1419.24 2000.664) rotate(17)" fill="#a7a7a7" stroke="#4a4a4a" stroke-width="0.4"/>
    <path id="Union_19" data-name="Union 19" d="M46.177,111.111c-6.065-.045-17.1-1.273-19.543-1.552l0,.011s-.083-.015-.243-.038-.242-.028-.242-.028v-.011c-2.522-.4-14.241-2.287-20.057-4.01-1.035-.307-1.895-.575-2.614-.82C-.333,103.357-.045,102.7.042,100.433c.1-2.7,3.457-3.848,3.457-3.848s-.379-.779.66-2.081S9.1,92.62,10.145,86.938s-2.6-9.291-3.3-10.682a2.188,2.188,0,0,1-.116-2.221s-3.048-2.093-2.391-4.764A3.911,3.911,0,0,1,7.14,66.2L9.467,52.7h0l1.52-14A4.276,4.276,0,0,1,8.724,34.8c.09-2.756,3.329-3.7,3.329-3.7a4.281,4.281,0,0,1,.7-3.2,5.164,5.164,0,0,1,2.7-1.391s3.454-3.439,3.2-6.71-2.321-4.236-2.969-5.78a23.422,23.422,0,0,1-1.079-3.75A6.84,6.84,0,0,1,13.45,5.226c.631-2.624.8-3.518,7.529-4.817S41.2,1.325,41.2,1.325l0,.015c.65.1,13.487,2.021,19.5,4.975,6.165,3.03,6.257,4.76,6.2,7.46s-2.911,4.438-2.911,4.438a5.534,5.534,0,0,1-1.146,2.507c-1.018,1.32-3.756,1.746-4.83,4.838s.366,7.015.366,7.015A5.1,5.1,0,0,1,60.9,34.585a8.449,8.449,0,0,1,.417,3.931s2.545,1.723,1.934,4.408A4.531,4.531,0,0,1,60.2,46.248L58.583,59.5l-.012,0L57.336,73.077a5.545,5.545,0,0,1,1.883,4.37c-.152,2.741-3.288,3.669-3.288,3.669a6.111,6.111,0,0,1-1.412,2.615c-1.085,1.122-4.888,4.044-4.871,9.11s2.927,5.931,3.542,7.475a4.931,4.931,0,0,1,.449,2.468s3.248,3.049,2.558,5.652c-.628,2.36-2.726,2.683-8.218,2.683C47.415,111.119,46.815,111.116,46.177,111.111Z" transform="translate(1365.227 1957.02) rotate(-2)" fill="#9a9a9a" stroke="#4a4a4a" stroke-width="0.4"/>
    <path id="Path_7294" data-name="Path 7294" d="M23.8,13.792C8.954,10.725,3.439,8.255,1.644,7.479S-.4,4.868.533,2.648,4.237,0,4.237,0,15.925,3.462,28.423,5.723,53.735,9.051,53.735,9.051s2.305,2.733,2.305,4.741-1.676,3.488-6.027,3.265A138.774,138.774,0,0,1,23.8,13.792Z" transform="matrix(0.996, -0.087, 0.087, 0.996, 1368.264, 2053.682)" fill="#adadad" stroke="#4a4a4a" stroke-width="0.4"/>
    <path id="Path_7296" data-name="Path 7296" d="M54.526,13.845A4.3,4.3,0,0,0,52.81,9.511S39.765,6.042,27.34,3.689,3.155,0,3.155,0A4.13,4.13,0,0,0,.03,3.251C-.322,5.888,2.525,7.313,2.525,7.313s12.63,2.629,24.816,5.1S51.267,17.2,51.267,17.2A4.119,4.119,0,0,0,54.526,13.845Z" transform="matrix(0.996, -0.087, 0.087, 0.996, 1371.504, 2023.412)" fill="#adadad" stroke="#4a4a4a" stroke-width="0.4"/>
    <path id="Path_7297" data-name="Path 7297" d="M54.534,14.086a4.352,4.352,0,0,0-2.026-4.377S45.156,5.325,29.4,2.161,3.163.241,3.163.241A4.129,4.129,0,0,0,.038,3.492,2.635,2.635,0,0,0,1.895,6.637S.305,3.1,28.054,8.232s23.675,8.94,23.675,8.94A3.35,3.35,0,0,0,54.534,14.086Z" transform="matrix(0.996, -0.087, 0.087, 0.996, 1374.51, 1988.145)" fill="#adadad" stroke="#4a4a4a" stroke-width="0.4"/>
    <path id="Path_7748" data-name="Path 7748" d="M29.534,16.512C44.242,14,54.631,9.93,54.622,5.349S52.426,0,52.426,0,49.663,5.228,27.388,9.048,1.35,7.852,1.35,7.852s-2.142,0-1.029,5.212S14.827,19.023,29.534,16.512Z" transform="translate(1429.724 1979.945) rotate(-164)" fill="#adadad" stroke="#4a4a4a" stroke-width="0.4"/>
  </g>
</svg>
