<svg xmlns="http://www.w3.org/2000/svg" width="28.006" height="22.758"><path d="M28.006 2.677a11.469 11.469 0 0 1-3.293.924A5.755 5.755 0 0 0 27.23.415a11.568 11.568 0 0 1-3.641 1.406A5.656 5.656 0 0 0 19.36 0a5.736 5.736 0 0 0-5.716 5.743 5.969 5.969 0 0 0 .147 1.312 16.325 16.325 0 0 1-11.834-6A5.721 5.721 0 0 0 3.735 8.7a5.68 5.68 0 0 1-2.61-.669v.04a5.747 5.747 0 0 0 4.605 5.637 5.631 5.631 0 0 1-2.584.094 5.729 5.729 0 0 0 5.355 3.989 11.408 11.408 0 0 1-7.135 2.463 11.676 11.676 0 0 1-1.365-.08 16.258 16.258 0 0 0 8.809 2.584c10.55 0 16.344-8.758 16.344-16.346 0-.254 0-.5-.013-.75a11.475 11.475 0 0 0 2.865-2.985Z" fill="#bebebe"/></svg>