<svg xmlns="http://www.w3.org/2000/svg" width="31.364" height="21.955"><path d="m12.546 15.682 8.139-4.7-8.139-4.7v9.409M30.674 3.4a16.213 16.213 0 0 1 .439 2.98c.11 1.255.157 2.337.157 3.278l.094 1.317a31.157 31.157 0 0 1-.69 7.575 3.674 3.674 0 0 1-2.713 2.713 22.109 22.109 0 0 1-4.156.439c-2.039.11-3.9.157-5.63.157l-2.493.094c-6.571 0-10.664-.251-12.279-.69A3.674 3.674 0 0 1 .69 18.552a16.213 16.213 0 0 1-.439-2.98 37.665 37.665 0 0 1-.157-3.278L0 10.978A31.157 31.157 0 0 1 .69 3.4 3.674 3.674 0 0 1 3.4.69 22.109 22.109 0 0 1 7.556.251c2.039-.11 3.9-.157 5.63-.157L15.682 0c6.571 0 10.664.251 12.279.69a3.674 3.674 0 0 1 2.713 2.71Z" fill="#bebebe"/></svg>